solid OpenSCAD_Model
  facet normal -1 0 0
    outer loop
      vertex 0 0 0
      vertex 0 0 4
      vertex 0 44 0
    endloop
  endfacet
  facet normal -1 0 0
    outer loop
      vertex 0 44 0
      vertex 0 0 4
      vertex 0 44 4
    endloop
  endfacet
  facet normal 0 -1 0
    outer loop
      vertex 0 0 4
      vertex 0 0 0
      vertex 44 0 0
    endloop
  endfacet
  facet normal 0 -1 0
    outer loop
      vertex 44 0 4
      vertex 0 0 4
      vertex 44 0 0
    endloop
  endfacet
  facet normal 0 0 -1
    outer loop
      vertex 0 0 0
      vertex 0 44 0
      vertex 44 0 0
    endloop
  endfacet
  facet normal 0 0 -1
    outer loop
      vertex 44 0 0
      vertex 0 44 0
      vertex 44 44 0
    endloop
  endfacet
  facet normal 0 1 0
    outer loop
      vertex 0 44 0
      vertex 0 44 4
      vertex 44 44 0
    endloop
  endfacet
  facet normal 0 1 0
    outer loop
      vertex 44 44 0
      vertex 0 44 4
      vertex 44 44 4
    endloop
  endfacet
  facet normal 0 0 1
    outer loop
      vertex 5 41 4
      vertex 44 44 4
      vertex 0 44 4
    endloop
  endfacet
  facet normal 0 0 1
    outer loop
      vertex 39 41 4
      vertex 39 3 4
      vertex 44 0 4
    endloop
  endfacet
  facet normal 0 0 1
    outer loop
      vertex 39 41 4
      vertex 44 44 4
      vertex 5 41 4
    endloop
  endfacet
  facet normal 0 0 1
    outer loop
      vertex 44 0 4
      vertex 44 44 4
      vertex 39 41 4
    endloop
  endfacet
  facet normal 0 0 1
    outer loop
      vertex 0 0 4
      vertex 44 0 4
      vertex 39 3 4
    endloop
  endfacet
  facet normal 0 0 1
    outer loop
      vertex 0 0 4
      vertex 5 3 4
      vertex 0 44 4
    endloop
  endfacet
  facet normal 0 0 1
    outer loop
      vertex 0 0 4
      vertex 39 3 4
      vertex 5 3 4
    endloop
  endfacet
  facet normal 0 0 1
    outer loop
      vertex 5 3 4
      vertex 5 41 4
      vertex 0 44 4
    endloop
  endfacet
  facet normal 1 0 0
    outer loop
      vertex 44 0 4
      vertex 44 0 0
      vertex 44 44 0
    endloop
  endfacet
  facet normal 1 0 0
    outer loop
      vertex 44 44 4
      vertex 44 0 4
      vertex 44 44 0
    endloop
  endfacet
  facet normal 0 1 0
    outer loop
      vertex 5 41 4
      vertex 5 41 8
      vertex 39 41 4
    endloop
  endfacet
  facet normal 0 1 0
    outer loop
      vertex 39 41 4
      vertex 5 41 8
      vertex 39 41 8
    endloop
  endfacet
  facet normal -1 0 0
    outer loop
      vertex 5 3 4
      vertex 5 3 8
      vertex 5 41 4
    endloop
  endfacet
  facet normal -1 0 0
    outer loop
      vertex 5 41 4
      vertex 5 3 8
      vertex 5 41 8
    endloop
  endfacet
  facet normal 0 -1 0
    outer loop
      vertex 5 3 8
      vertex 5 3 4
      vertex 39 3 4
    endloop
  endfacet
  facet normal 0 -1 0
    outer loop
      vertex 39 3 8
      vertex 5 3 8
      vertex 39 3 4
    endloop
  endfacet
  facet normal 1 0 0
    outer loop
      vertex 39 3 8
      vertex 39 3 4
      vertex 39 41 4
    endloop
  endfacet
  facet normal 1 0 0
    outer loop
      vertex 39 41 8
      vertex 39 3 8
      vertex 39 41 4
    endloop
  endfacet
  facet normal 0 0 1
    outer loop
      vertex 5 41 8
      vertex 5 3 8
      vertex 39 3 8
    endloop
  endfacet
  facet normal 0 0 1
    outer loop
      vertex 39 41 8
      vertex 5 41 8
      vertex 39 3 8
    endloop
  endfacet
endsolid OpenSCAD_Model
