solid Untitled-5397fc04
facet normal 0.0 0.0 -1.0
  outer loop
    vertex 170.0 40.0 -1.9999999999999998
    vertex 0.0 21.0 -1.9999999999999998
    vertex 0.0 40.0 -1.9999999999999998
  endloop
endfacet
facet normal 0.0 0.0 -1.0
  outer loop
    vertex 0.0 21.0 -1.9999999999999998
    vertex 170.0 40.0 -1.9999999999999998
    vertex 0.0 19.0 -1.9999999999999998
  endloop
endfacet
facet normal 0.0 0.0 -1.0
  outer loop
    vertex 0.0 19.0 -1.9999999999999998
    vertex 170.0 40.0 -1.9999999999999998
    vertex 0.0 17.0 -1.9999999999999998
  endloop
endfacet
facet normal 0.0 0.0 -1.0
  outer loop
    vertex 0.0 17.0 -1.9999999999999998
    vertex 170.0 40.0 -1.9999999999999998
    vertex 0.0 -1.9999999999999998 -1.9999999999999998
  endloop
endfacet
facet normal 0.0 0.0 -1.0
  outer loop
    vertex 0.0 -1.9999999999999998 -1.9999999999999998
    vertex 170.0 40.0 -1.9999999999999998
    vertex 170.0 -1.9999999999999998 -1.9999999999999998
  endloop
endfacet
facet normal -0.0 -0.0 1.0
  outer loop
    vertex 142.0 -1.9999999999999998 20.0
    vertex 28.0 1.9999999999999998 20.0
    vertex 28.0 -1.9999999999999998 20.0
  endloop
endfacet
facet normal -0.0 -0.0 1.0
  outer loop
    vertex 28.0 1.9999999999999998 20.0
    vertex 142.0 -1.9999999999999998 20.0
    vertex 142.0 1.9999999999999998 20.0
  endloop
endfacet
facet normal 1.0 0.0 0.0
  outer loop
    vertex 170.0 40.0 -1.9999999999999998
    vertex 170.0 -1.9999999999999998 20.0
    vertex 170.0 -1.9999999999999998 -1.9999999999999998
  endloop
endfacet
facet normal 1.0 0.0 0.0
  outer loop
    vertex 170.0 -1.9999999999999998 20.0
    vertex 170.0 40.0 -1.9999999999999998
    vertex 170.0 40.0 20.0
  endloop
endfacet
facet normal 0.0 -1.0 0.0
  outer loop
    vertex 170.0 -1.9999999999999998 20.0
    vertex 0.0 -1.9999999999999998 -1.9999999999999998
    vertex 170.0 -1.9999999999999998 -1.9999999999999998
  endloop
endfacet
facet normal 0.0 -1.0 0.0
  outer loop
    vertex 0.0 -1.9999999999999998 -1.9999999999999998
    vertex 170.0 -1.9999999999999998 20.0
    vertex 0.0 -1.9999999999999998 20.0
  endloop
endfacet
facet normal 0.0 -1.0 0.0
  outer loop
    vertex 0.0 -1.9999999999999998 20.0
    vertex 170.0 -1.9999999999999998 20.0
    vertex 158.0 -1.9999999999999998 20.0
  endloop
endfacet
facet normal 0.0 -1.0 0.0
  outer loop
    vertex 0.0 -1.9999999999999998 20.0
    vertex 158.0 -1.9999999999999998 20.0
    vertex 142.0 -1.9999999999999998 20.0
  endloop
endfacet
facet normal 0.0 -1.0 0.0
  outer loop
    vertex 0.0 -1.9999999999999998 20.0
    vertex 142.0 -1.9999999999999998 20.0
    vertex 28.0 -1.9999999999999998 20.0
  endloop
endfacet
facet normal 0.0 -1.0 0.0
  outer loop
    vertex 0.0 -1.9999999999999998 20.0
    vertex 28.0 -1.9999999999999998 20.0
    vertex 12.0 -1.9999999999999998 20.0
  endloop
endfacet
facet normal 0.0 -1.0 0.0
  outer loop
    vertex 158.0 -1.9999999999999998 20.0
    vertex 150.38822856765378 -1.9999999999999998 21.551111260566397
    vertex 142.0 -1.9999999999999998 20.0
  endloop
endfacet
facet normal 0.0 -1.0 0.0
  outer loop
    vertex 150.38822856765378 -1.9999999999999998 21.551111260566397
    vertex 158.0 -1.9999999999999998 20.0
    vertex 158.0 -1.9999999999999998 23.0
  endloop
endfacet
facet normal 0.0 -1.0 0.0
  outer loop
    vertex 142.0 -1.9999999999999998 20.0
    vertex 150.38822856765378 -1.9999999999999998 21.551111260566397
    vertex 150.0 -1.9999999999999998 21.5
  endloop
endfacet
facet normal 0.0 -1.0 0.0
  outer loop
    vertex 150.38822856765378 -1.9999999999999998 21.551111260566397
    vertex 158.0 -1.9999999999999998 23.0
    vertex 150.75 -1.9999999999999998 21.700961894323342
  endloop
endfacet
facet normal 0.0 -1.0 0.0
  outer loop
    vertex 150.75 -1.9999999999999998 21.700961894323342
    vertex 158.0 -1.9999999999999998 23.0
    vertex 151.06066017177983 -1.9999999999999998 21.93933982822018
  endloop
endfacet
facet normal 0.0 -1.0 0.0
  outer loop
    vertex 151.06066017177983 -1.9999999999999998 21.93933982822018
    vertex 158.0 -1.9999999999999998 23.0
    vertex 151.29903810567666 -1.9999999999999998 22.25
  endloop
endfacet
facet normal 0.0 -1.0 0.0
  outer loop
    vertex 151.29903810567666 -1.9999999999999998 22.25
    vertex 158.0 -1.9999999999999998 23.0
    vertex 151.44888873943358 -1.9999999999999998 22.61177143234622
  endloop
endfacet
facet normal 0.0 -1.0 0.0
  outer loop
    vertex 151.44888873943358 -1.9999999999999998 22.61177143234622
    vertex 158.0 -1.9999999999999998 23.0
    vertex 151.5 -1.9999999999999998 23.0
  endloop
endfacet
facet normal 0.0 -1.0 0.0
  outer loop
    vertex 28.0 -1.9999999999999998 20.0
    vertex 20.38822856765378 -1.9999999999999998 21.551111260566397
    vertex 12.0 -1.9999999999999998 20.0
  endloop
endfacet
facet normal 0.0 -1.0 0.0
  outer loop
    vertex 20.38822856765378 -1.9999999999999998 21.551111260566397
    vertex 28.0 -1.9999999999999998 20.0
    vertex 28.0 -1.9999999999999998 23.0
  endloop
endfacet
facet normal 0.0 -1.0 0.0
  outer loop
    vertex 12.0 -1.9999999999999998 20.0
    vertex 20.38822856765378 -1.9999999999999998 21.551111260566397
    vertex 20.0 -1.9999999999999998 21.5
  endloop
endfacet
facet normal 0.0 -1.0 0.0
  outer loop
    vertex 20.38822856765378 -1.9999999999999998 21.551111260566397
    vertex 28.0 -1.9999999999999998 23.0
    vertex 20.75 -1.9999999999999998 21.700961894323342
  endloop
endfacet
facet normal 0.0 -1.0 0.0
  outer loop
    vertex 20.75 -1.9999999999999998 21.700961894323342
    vertex 28.0 -1.9999999999999998 23.0
    vertex 21.060660171779823 -1.9999999999999998 21.93933982822018
  endloop
endfacet
facet normal 0.0 -1.0 0.0
  outer loop
    vertex 21.060660171779823 -1.9999999999999998 21.93933982822018
    vertex 28.0 -1.9999999999999998 23.0
    vertex 21.299038105676658 -1.9999999999999998 22.25
  endloop
endfacet
facet normal 0.0 -1.0 0.0
  outer loop
    vertex 21.299038105676658 -1.9999999999999998 22.25
    vertex 28.0 -1.9999999999999998 23.0
    vertex 21.448888739433603 -1.9999999999999998 22.61177143234622
  endloop
endfacet
facet normal 0.0 -1.0 0.0
  outer loop
    vertex 21.448888739433603 -1.9999999999999998 22.61177143234622
    vertex 28.0 -1.9999999999999998 23.0
    vertex 21.5 -1.9999999999999998 23.0
  endloop
endfacet
facet normal 0.0 -1.0 0.0
  outer loop
    vertex 12.0 -1.9999999999999998 20.0
    vertex 19.61177143234622 -1.9999999999999998 21.551111260566397
    vertex 12.0 -1.9999999999999998 23.0
  endloop
endfacet
facet normal 0.0 -1.0 0.0
  outer loop
    vertex 19.61177143234622 -1.9999999999999998 21.551111260566397
    vertex 12.0 -1.9999999999999998 20.0
    vertex 20.0 -1.9999999999999998 21.5
  endloop
endfacet
facet normal 0.0 -1.0 0.0
  outer loop
    vertex 12.0 -1.9999999999999998 23.0
    vertex 19.61177143234622 -1.9999999999999998 21.551111260566397
    vertex 19.25 -1.9999999999999998 21.700961894323342
  endloop
endfacet
facet normal 0.0 -1.0 0.0
  outer loop
    vertex 12.0 -1.9999999999999998 23.0
    vertex 19.25 -1.9999999999999998 21.700961894323342
    vertex 18.939339828220177 -1.9999999999999998 21.93933982822018
  endloop
endfacet
facet normal 0.0 -1.0 0.0
  outer loop
    vertex 12.0 -1.9999999999999998 23.0
    vertex 18.939339828220177 -1.9999999999999998 21.93933982822018
    vertex 18.700961894323342 -1.9999999999999998 22.25
  endloop
endfacet
facet normal 0.0 -1.0 0.0
  outer loop
    vertex 12.0 -1.9999999999999998 23.0
    vertex 18.700961894323342 -1.9999999999999998 22.25
    vertex 18.551111260566397 -1.9999999999999998 22.61177143234622
  endloop
endfacet
facet normal 0.0 -1.0 0.0
  outer loop
    vertex 12.0 -1.9999999999999998 23.0
    vertex 18.551111260566397 -1.9999999999999998 22.61177143234622
    vertex 18.5 -1.9999999999999998 23.0
  endloop
endfacet
facet normal 0.0 -1.0 0.0
  outer loop
    vertex 142.0 -1.9999999999999998 20.0
    vertex 149.61177143234622 -1.9999999999999998 21.551111260566397
    vertex 142.0 -1.9999999999999998 23.0
  endloop
endfacet
facet normal 0.0 -1.0 0.0
  outer loop
    vertex 149.61177143234622 -1.9999999999999998 21.551111260566397
    vertex 142.0 -1.9999999999999998 20.0
    vertex 150.0 -1.9999999999999998 21.5
  endloop
endfacet
facet normal 0.0 -1.0 0.0
  outer loop
    vertex 142.0 -1.9999999999999998 23.0
    vertex 149.61177143234622 -1.9999999999999998 21.551111260566397
    vertex 149.25 -1.9999999999999998 21.700961894323342
  endloop
endfacet
facet normal 0.0 -1.0 0.0
  outer loop
    vertex 142.0 -1.9999999999999998 23.0
    vertex 149.25 -1.9999999999999998 21.700961894323342
    vertex 148.93933982822017 -1.9999999999999998 21.93933982822018
  endloop
endfacet
facet normal 0.0 -1.0 0.0
  outer loop
    vertex 142.0 -1.9999999999999998 23.0
    vertex 148.93933982822017 -1.9999999999999998 21.93933982822018
    vertex 148.70096189432334 -1.9999999999999998 22.25
  endloop
endfacet
facet normal 0.0 -1.0 0.0
  outer loop
    vertex 142.0 -1.9999999999999998 23.0
    vertex 148.70096189432334 -1.9999999999999998 22.25
    vertex 148.5511112605664 -1.9999999999999998 22.61177143234622
  endloop
endfacet
facet normal 0.0 -1.0 0.0
  outer loop
    vertex 142.0 -1.9999999999999998 23.0
    vertex 148.5511112605664 -1.9999999999999998 22.61177143234622
    vertex 148.5 -1.9999999999999998 23.0
  endloop
endfacet
facet normal -1.0 0.0 0.0
  outer loop
    vertex 0.0 40.0 20.0
    vertex 0.0 -1.9999999999999998 -1.9999999999999998
    vertex 0.0 -1.9999999999999998 20.0
  endloop
endfacet
facet normal -1.0 0.0 0.0
  outer loop
    vertex 0.0 -1.9999999999999998 -1.9999999999999998
    vertex 0.0 40.0 20.0
    vertex 0.0 17.0 1.9999999999999998
  endloop
endfacet
facet normal -1.0 0.0 0.0
  outer loop
    vertex 0.0 17.0 1.9999999999999998
    vertex 0.0 40.0 20.0
    vertex 0.0 19.0 1.9999999999999998
  endloop
endfacet
facet normal -1.0 0.0 0.0
  outer loop
    vertex 0.0 19.0 1.9999999999999998
    vertex 0.0 40.0 20.0
    vertex 0.0 21.0 1.9999999999999998
  endloop
endfacet
facet normal -1.0 0.0 0.0
  outer loop
    vertex 0.0 21.0 1.9999999999999998
    vertex 0.0 40.0 20.0
    vertex 0.0 21.0 -1.9999999999999998
  endloop
endfacet
facet normal -1.0 0.0 0.0
  outer loop
    vertex 0.0 21.0 -1.9999999999999998
    vertex 0.0 40.0 20.0
    vertex 0.0 40.0 -1.9999999999999998
  endloop
endfacet
facet normal -1.0 0.0 0.0
  outer loop
    vertex 0.0 17.0 -1.9999999999999998
    vertex 0.0 -1.9999999999999998 -1.9999999999999998
    vertex 0.0 17.0 1.9999999999999998
  endloop
endfacet
facet normal -0.0 0.9999999999999999 0.0
  outer loop
    vertex 0.0 40.0 20.0
    vertex 170.0 40.0 -1.9999999999999998
    vertex 0.0 40.0 -1.9999999999999998
  endloop
endfacet
facet normal -0.0 0.9999999999999999 0.0
  outer loop
    vertex 170.0 40.0 -1.9999999999999998
    vertex 0.0 40.0 20.0
    vertex 170.0 40.0 20.0
  endloop
endfacet
facet normal -0.0 1.0 -0.0
  outer loop
    vertex 1.9999999999999996 1.9999999999999998 20.0
    vertex 168.0 1.9999999999999998 0.0
    vertex 1.9999999999999996 1.9999999999999998 0.0
  endloop
endfacet
facet normal -0.0 1.0 -0.0
  outer loop
    vertex 168.0 1.9999999999999998 0.0
    vertex 1.9999999999999996 1.9999999999999998 20.0
    vertex 168.0 1.9999999999999998 20.0
  endloop
endfacet
facet normal -0.0 1.0 -0.0
  outer loop
    vertex 168.0 1.9999999999999998 20.0
    vertex 1.9999999999999996 1.9999999999999998 20.0
    vertex 12.0 1.9999999999999998 20.0
  endloop
endfacet
facet normal -0.0 1.0 -0.0
  outer loop
    vertex 168.0 1.9999999999999998 20.0
    vertex 12.0 1.9999999999999998 20.0
    vertex 28.0 1.9999999999999998 20.0
  endloop
endfacet
facet normal -0.0 1.0 -0.0
  outer loop
    vertex 168.0 1.9999999999999998 20.0
    vertex 28.0 1.9999999999999998 20.0
    vertex 142.0 1.9999999999999998 20.0
  endloop
endfacet
facet normal -0.0 1.0 -0.0
  outer loop
    vertex 168.0 1.9999999999999998 20.0
    vertex 142.0 1.9999999999999998 20.0
    vertex 158.0 1.9999999999999998 20.0
  endloop
endfacet
facet normal -0.0 1.0 -0.0
  outer loop
    vertex 12.0 1.9999999999999998 20.0
    vertex 19.61177143234622 1.9999999999999998 21.551111260566397
    vertex 28.0 1.9999999999999998 20.0
  endloop
endfacet
facet normal -0.0 1.0 -0.0
  outer loop
    vertex 19.61177143234622 1.9999999999999998 21.551111260566397
    vertex 12.0 1.9999999999999998 20.0
    vertex 12.0 1.9999999999999998 23.0
  endloop
endfacet
facet normal -0.0 1.0 -0.0
  outer loop
    vertex 28.0 1.9999999999999998 20.0
    vertex 19.61177143234622 1.9999999999999998 21.551111260566397
    vertex 20.0 1.9999999999999998 21.5
  endloop
endfacet
facet normal -0.0 1.0 -0.0
  outer loop
    vertex 19.61177143234622 1.9999999999999998 21.551111260566397
    vertex 12.0 1.9999999999999998 23.0
    vertex 19.25 1.9999999999999998 21.700961894323342
  endloop
endfacet
facet normal -0.0 1.0 -0.0
  outer loop
    vertex 19.25 1.9999999999999998 21.700961894323342
    vertex 12.0 1.9999999999999998 23.0
    vertex 18.939339828220177 1.9999999999999998 21.93933982822018
  endloop
endfacet
facet normal -0.0 1.0 -0.0
  outer loop
    vertex 18.939339828220177 1.9999999999999998 21.93933982822018
    vertex 12.0 1.9999999999999998 23.0
    vertex 18.700961894323342 1.9999999999999998 22.25
  endloop
endfacet
facet normal -0.0 1.0 -0.0
  outer loop
    vertex 18.700961894323342 1.9999999999999998 22.25
    vertex 12.0 1.9999999999999998 23.0
    vertex 18.551111260566397 1.9999999999999998 22.61177143234622
  endloop
endfacet
facet normal -0.0 1.0 -0.0
  outer loop
    vertex 18.551111260566397 1.9999999999999998 22.61177143234622
    vertex 12.0 1.9999999999999998 23.0
    vertex 18.5 1.9999999999999998 23.0
  endloop
endfacet
facet normal -0.0 1.0 -0.0
  outer loop
    vertex 142.0 1.9999999999999998 20.0
    vertex 149.61177143234622 1.9999999999999998 21.551111260566397
    vertex 158.0 1.9999999999999998 20.0
  endloop
endfacet
facet normal -0.0 1.0 -0.0
  outer loop
    vertex 149.61177143234622 1.9999999999999998 21.551111260566397
    vertex 142.0 1.9999999999999998 20.0
    vertex 142.0 1.9999999999999998 23.0
  endloop
endfacet
facet normal -0.0 1.0 -0.0
  outer loop
    vertex 158.0 1.9999999999999998 20.0
    vertex 149.61177143234622 1.9999999999999998 21.551111260566397
    vertex 150.0 1.9999999999999998 21.5
  endloop
endfacet
facet normal -0.0 1.0 -0.0
  outer loop
    vertex 149.61177143234622 1.9999999999999998 21.551111260566397
    vertex 142.0 1.9999999999999998 23.0
    vertex 149.25 1.9999999999999998 21.700961894323342
  endloop
endfacet
facet normal -0.0 1.0 -0.0
  outer loop
    vertex 149.25 1.9999999999999998 21.700961894323342
    vertex 142.0 1.9999999999999998 23.0
    vertex 148.93933982822017 1.9999999999999998 21.93933982822018
  endloop
endfacet
facet normal -0.0 1.0 -0.0
  outer loop
    vertex 148.93933982822017 1.9999999999999998 21.93933982822018
    vertex 142.0 1.9999999999999998 23.0
    vertex 148.70096189432334 1.9999999999999998 22.25
  endloop
endfacet
facet normal -0.0 1.0 -0.0
  outer loop
    vertex 148.70096189432334 1.9999999999999998 22.25
    vertex 142.0 1.9999999999999998 23.0
    vertex 148.5511112605664 1.9999999999999998 22.61177143234622
  endloop
endfacet
facet normal -0.0 1.0 -0.0
  outer loop
    vertex 148.5511112605664 1.9999999999999998 22.61177143234622
    vertex 142.0 1.9999999999999998 23.0
    vertex 148.5 1.9999999999999998 23.0
  endloop
endfacet
facet normal -0.0 1.0 -0.0
  outer loop
    vertex 158.0 1.9999999999999998 20.0
    vertex 150.38822856765378 1.9999999999999998 21.551111260566397
    vertex 158.0 1.9999999999999998 23.0
  endloop
endfacet
facet normal -0.0 1.0 -0.0
  outer loop
    vertex 150.38822856765378 1.9999999999999998 21.551111260566397
    vertex 158.0 1.9999999999999998 20.0
    vertex 150.0 1.9999999999999998 21.5
  endloop
endfacet
facet normal -0.0 1.0 -0.0
  outer loop
    vertex 158.0 1.9999999999999998 23.0
    vertex 150.38822856765378 1.9999999999999998 21.551111260566397
    vertex 150.75 1.9999999999999998 21.700961894323342
  endloop
endfacet
facet normal -0.0 1.0 -0.0
  outer loop
    vertex 158.0 1.9999999999999998 23.0
    vertex 150.75 1.9999999999999998 21.700961894323342
    vertex 151.06066017177983 1.9999999999999998 21.93933982822018
  endloop
endfacet
facet normal -0.0 1.0 -0.0
  outer loop
    vertex 158.0 1.9999999999999998 23.0
    vertex 151.06066017177983 1.9999999999999998 21.93933982822018
    vertex 151.29903810567666 1.9999999999999998 22.25
  endloop
endfacet
facet normal -0.0 1.0 -0.0
  outer loop
    vertex 158.0 1.9999999999999998 23.0
    vertex 151.29903810567666 1.9999999999999998 22.25
    vertex 151.44888873943358 1.9999999999999998 22.61177143234622
  endloop
endfacet
facet normal -0.0 1.0 -0.0
  outer loop
    vertex 158.0 1.9999999999999998 23.0
    vertex 151.44888873943358 1.9999999999999998 22.61177143234622
    vertex 151.5 1.9999999999999998 23.0
  endloop
endfacet
facet normal -0.0 1.0 -0.0
  outer loop
    vertex 28.0 1.9999999999999998 20.0
    vertex 20.38822856765378 1.9999999999999998 21.551111260566397
    vertex 28.0 1.9999999999999998 23.0
  endloop
endfacet
facet normal -0.0 1.0 -0.0
  outer loop
    vertex 20.38822856765378 1.9999999999999998 21.551111260566397
    vertex 28.0 1.9999999999999998 20.0
    vertex 20.0 1.9999999999999998 21.5
  endloop
endfacet
facet normal -0.0 1.0 -0.0
  outer loop
    vertex 28.0 1.9999999999999998 23.0
    vertex 20.38822856765378 1.9999999999999998 21.551111260566397
    vertex 20.75 1.9999999999999998 21.700961894323342
  endloop
endfacet
facet normal -0.0 1.0 -0.0
  outer loop
    vertex 28.0 1.9999999999999998 23.0
    vertex 20.75 1.9999999999999998 21.700961894323342
    vertex 21.060660171779823 1.9999999999999998 21.93933982822018
  endloop
endfacet
facet normal -0.0 1.0 -0.0
  outer loop
    vertex 28.0 1.9999999999999998 23.0
    vertex 21.060660171779823 1.9999999999999998 21.93933982822018
    vertex 21.299038105676658 1.9999999999999998 22.25
  endloop
endfacet
facet normal -0.0 1.0 -0.0
  outer loop
    vertex 28.0 1.9999999999999998 23.0
    vertex 21.299038105676658 1.9999999999999998 22.25
    vertex 21.448888739433603 1.9999999999999998 22.61177143234622
  endloop
endfacet
facet normal -0.0 1.0 -0.0
  outer loop
    vertex 28.0 1.9999999999999998 23.0
    vertex 21.448888739433603 1.9999999999999998 22.61177143234622
    vertex 21.5 1.9999999999999998 23.0
  endloop
endfacet
facet normal -1.0 0.0 0.0
  outer loop
    vertex 168.0 38.0 20.0
    vertex 168.0 1.9999999999999998 0.0
    vertex 168.0 1.9999999999999998 20.0
  endloop
endfacet
facet normal -1.0 0.0 0.0
  outer loop
    vertex 168.0 1.9999999999999998 0.0
    vertex 168.0 38.0 20.0
    vertex 168.0 38.0 0.0
  endloop
endfacet
facet normal 0.0 -1.0 0.0
  outer loop
    vertex 168.0 38.0 20.0
    vertex 1.9999999999999998 38.0 0.0
    vertex 168.0 38.0 0.0
  endloop
endfacet
facet normal 0.0 -1.0 0.0
  outer loop
    vertex 1.9999999999999998 38.0 0.0
    vertex 168.0 38.0 20.0
    vertex 1.9999999999999998 38.0 20.0
  endloop
endfacet
facet normal 1.0 -9.791550286624644e-18 -0.0
  outer loop
    vertex 1.9999999999999998 38.0 0.0
    vertex 1.9999999999999996 1.9999999999999998 20.0
    vertex 1.9999999999999996 1.9999999999999998 0.0
  endloop
endfacet
facet normal 1.0 -9.791550286624644e-18 -0.0
  outer loop
    vertex 1.9999999999999996 1.9999999999999998 20.0
    vertex 1.9999999999999998 38.0 0.0
    vertex 1.9999999999999998 38.0 20.0
  endloop
endfacet
facet normal -0.0 -0.0 1.0
  outer loop
    vertex 168.0 1.9999999999999998 0.0
    vertex 1.9999999999999998 38.0 0.0
    vertex 1.9999999999999996 1.9999999999999998 0.0
  endloop
endfacet
facet normal -0.0 -0.0 1.0
  outer loop
    vertex 1.9999999999999998 38.0 0.0
    vertex 168.0 1.9999999999999998 0.0
    vertex 168.0 38.0 0.0
  endloop
endfacet
facet normal 0.0 0.0 -1.0
  outer loop
    vertex 0.0 21.0 -1.9999999999999998
    vertex -14.999999999999998 17.000000000000004 -1.9999999999999998
    vertex -14.999999999999998 21.0 -1.9999999999999998
  endloop
endfacet
facet normal 0.0 0.0 -1.0
  outer loop
    vertex -14.999999999999998 17.000000000000004 -1.9999999999999998
    vertex 0.0 21.0 -1.9999999999999998
    vertex 0.0 17.0 -1.9999999999999998
  endloop
endfacet
facet normal 0.0 0.0 -1.0
  outer loop
    vertex 0.0 17.0 -1.9999999999999998
    vertex 0.0 21.0 -1.9999999999999998
    vertex 0.0 19.0 -1.9999999999999998
  endloop
endfacet
facet normal -0.0 -0.0 1.0
  outer loop
    vertex 0.0 17.0 1.9999999999999998
    vertex -6.999999999999998 21.0 1.9999999999999998
    vertex -6.999999999999998 16.999999999999986 1.9999999999999998
  endloop
endfacet
facet normal -0.0 -0.0 1.0
  outer loop
    vertex -6.999999999999998 21.0 1.9999999999999998
    vertex 0.0 17.0 1.9999999999999998
    vertex 0.0 21.0 1.9999999999999998
  endloop
endfacet
facet normal -0.0 -0.0 1.0
  outer loop
    vertex 0.0 21.0 1.9999999999999998
    vertex 0.0 17.0 1.9999999999999998
    vertex 0.0 19.0 1.9999999999999998
  endloop
endfacet
facet normal -1.8016755972723753e-16 -1.0 4.826316323469792e-17
  outer loop
    vertex 0.0 17.0 1.9999999999999998
    vertex -14.999999999999998 17.000000000000004 -1.9999999999999998
    vertex 0.0 17.0 -1.9999999999999998
  endloop
endfacet
facet normal -1.8016755972723753e-16 -1.0 4.826316323469792e-17
  outer loop
    vertex -14.999999999999998 17.000000000000004 -1.9999999999999998
    vertex 0.0 17.0 1.9999999999999998
    vertex -9.999999999999998 17.000000000000004 1.9999999999999998
  endloop
endfacet
facet normal -1.8016755972723753e-16 -1.0 4.826316323469792e-17
  outer loop
    vertex -14.999999999999998 17.000000000000004 -1.9999999999999998
    vertex -9.999999999999998 17.000000000000004 1.9999999999999998
    vertex -14.999999999999998 17.000000000000004 12.0
  endloop
endfacet
facet normal -1.8016755972723753e-16 -1.0 4.826316323469792e-17
  outer loop
    vertex -9.999999999999998 17.000000000000004 1.9999999999999998
    vertex 0.0 17.0 1.9999999999999998
    vertex -6.999999999999998 16.999999999999986 1.9999999999999998
  endloop
endfacet
facet normal -1.8016755972723753e-16 -1.0 4.826316323469792e-17
  outer loop
    vertex -9.999999999999998 17.000000000000004 1.9999999999999998
    vertex -6.999999999999998 16.999999999999986 1.9999999999999998
    vertex -7.999999999999999 17.000000000000004 1.9999999999999998
  endloop
endfacet
facet normal -1.8016755972723753e-16 -1.0 4.826316323469792e-17
  outer loop
    vertex -14.999999999999998 17.000000000000004 12.0
    vertex -9.999999999999998 17.000000000000004 1.9999999999999998
    vertex -9.999999999999998 17.000000000000004 3.9999999999999996
  endloop
endfacet
facet normal -1.8016755972723753e-16 -1.0 4.826316323469792e-17
  outer loop
    vertex -14.999999999999998 17.000000000000004 12.0
    vertex -9.999999999999998 17.000000000000004 3.9999999999999996
    vertex -9.999999999999998 16.999999999999986 5.0
  endloop
endfacet
facet normal -1.8016755972723753e-16 -1.0 4.826316323469792e-17
  outer loop
    vertex -14.999999999999998 17.000000000000004 12.0
    vertex -9.999999999999998 16.999999999999986 5.0
    vertex -9.999999999999998 17.000000000000004 12.0
  endloop
endfacet
facet normal -1.0 0.0 0.0
  outer loop
    vertex -14.999999999999998 21.0 12.0
    vertex -14.999999999999998 17.000000000000004 -1.9999999999999998
    vertex -14.999999999999998 17.000000000000004 12.0
  endloop
endfacet
facet normal -1.0 0.0 0.0
  outer loop
    vertex -14.999999999999998 17.000000000000004 -1.9999999999999998
    vertex -14.999999999999998 21.0 12.0
    vertex -14.999999999999998 21.0 -1.9999999999999998
  endloop
endfacet
facet normal -0.0 1.0 0.0
  outer loop
    vertex -14.999999999999998 21.0 -1.9999999999999998
    vertex -9.999999999999998 21.0 1.9999999999999998
    vertex 0.0 21.0 -1.9999999999999998
  endloop
endfacet
facet normal -0.0 1.0 0.0
  outer loop
    vertex -9.999999999999998 21.0 1.9999999999999998
    vertex -14.999999999999998 21.0 -1.9999999999999998
    vertex -14.999999999999998 21.0 12.0
  endloop
endfacet
facet normal -0.0 1.0 0.0
  outer loop
    vertex -9.999999999999998 21.0 1.9999999999999998
    vertex -14.999999999999998 21.0 12.0
    vertex -9.999999999999998 21.0 5.0
  endloop
endfacet
facet normal -0.0 1.0 0.0
  outer loop
    vertex -9.999999999999998 21.0 5.0
    vertex -14.999999999999998 21.0 12.0
    vertex -9.999999999999998 21.0 12.0
  endloop
endfacet
facet normal -0.0 1.0 0.0
  outer loop
    vertex -9.999999999999998 21.0 1.9999999999999998
    vertex 0.0 21.0 1.9999999999999998
    vertex 0.0 21.0 -1.9999999999999998
  endloop
endfacet
facet normal -0.0 1.0 0.0
  outer loop
    vertex 0.0 21.0 1.9999999999999998
    vertex -9.999999999999998 21.0 1.9999999999999998
    vertex -6.999999999999998 21.0 1.9999999999999998
  endloop
endfacet
facet normal -1.0 -0.0 -0.0
  outer loop
    vertex 0.0 21.0 1.9999999999999998
    vertex 0.0 19.0 -1.9999999999999998
    vertex 0.0 19.0 1.9999999999999998
  endloop
endfacet
facet normal -1.0 -0.0 -0.0
  outer loop
    vertex 0.0 19.0 -1.9999999999999998
    vertex 0.0 21.0 1.9999999999999998
    vertex 0.0 21.0 -1.9999999999999998
  endloop
endfacet
facet normal -1.0 -0.0 -0.0
  outer loop
    vertex 0.0 19.0 1.9999999999999998
    vertex 0.0 17.0 -1.9999999999999998
    vertex 0.0 17.0 1.9999999999999998
  endloop
endfacet
facet normal -1.0 -0.0 -0.0
  outer loop
    vertex 0.0 17.0 -1.9999999999999998
    vertex 0.0 19.0 1.9999999999999998
    vertex 0.0 19.0 -1.9999999999999998
  endloop
endfacet
facet normal 0.0 0.0 1.0
  outer loop
    vertex -9.999999999999998 17.000000000000004 12.0
    vertex -14.999999999999998 21.0 12.0
    vertex -14.999999999999998 17.000000000000004 12.0
  endloop
endfacet
facet normal 0.0 0.0 1.0
  outer loop
    vertex -14.999999999999998 21.0 12.0
    vertex -9.999999999999998 17.000000000000004 12.0
    vertex -9.999999999999998 21.0 12.0
  endloop
endfacet
facet normal 1.0 -0.0 -0.0
  outer loop
    vertex -9.999999999999998 21.0 5.0
    vertex -9.999999999999998 17.000000000000004 12.0
    vertex -9.999999999999998 16.999999999999986 5.0
  endloop
endfacet
facet normal 1.0 -0.0 -0.0
  outer loop
    vertex -9.999999999999998 17.000000000000004 12.0
    vertex -9.999999999999998 21.0 5.0
    vertex -9.999999999999998 21.0 12.0
  endloop
endfacet
facet normal -0.0 1.0 -0.0
  outer loop
    vertex -9.999999999999998 21.0 5.0
    vertex -6.999999999999998 21.0 1.9999999999999998
    vertex -9.999999999999998 21.0 1.9999999999999998
  endloop
endfacet
facet normal -5.639932965095795e-15 -1.0 -5.639932965095793e-15
  outer loop
    vertex -9.999999999999998 16.999999999999986 5.0
    vertex -7.999999999999999 17.000000000000004 1.9999999999999998
    vertex -6.999999999999998 16.999999999999986 1.9999999999999998
  endloop
endfacet
facet normal -5.639932965095795e-15 -1.0 -5.639932965095793e-15
  outer loop
    vertex -7.999999999999999 17.000000000000004 1.9999999999999998
    vertex -9.999999999999998 16.999999999999986 5.0
    vertex -9.999999999999998 17.000000000000004 1.9999999999999998
  endloop
endfacet
facet normal -5.639932965095795e-15 -1.0 -5.639932965095793e-15
  outer loop
    vertex -9.999999999999998 17.000000000000004 1.9999999999999998
    vertex -9.999999999999998 16.999999999999986 5.0
    vertex -9.999999999999998 17.000000000000004 3.9999999999999996
  endloop
endfacet
facet normal 0.7071067811865475 -0.0 0.7071067811865475
  outer loop
    vertex -6.999999999999998 21.0 1.9999999999999998
    vertex -9.999999999999998 16.999999999999986 5.0
    vertex -6.999999999999998 16.999999999999986 1.9999999999999998
  endloop
endfacet
facet normal 0.7071067811865475 -0.0 0.7071067811865475
  outer loop
    vertex -9.999999999999998 16.999999999999986 5.0
    vertex -6.999999999999998 21.0 1.9999999999999998
    vertex -9.999999999999998 21.0 5.0
  endloop
endfacet
facet normal -0.0 -0.0 1.0
  outer loop
    vertex -7.999999999999999 17.000000000000004 1.9999999999999998
    vertex -9.999999999999998 21.0 1.9999999999999998
    vertex -9.999999999999998 17.000000000000004 1.9999999999999998
  endloop
endfacet
facet normal -0.0 -0.0 1.0
  outer loop
    vertex -9.999999999999998 21.0 1.9999999999999998
    vertex -7.999999999999999 17.000000000000004 1.9999999999999998
    vertex -6.999999999999998 21.0 1.9999999999999998
  endloop
endfacet
facet normal -0.0 -0.0 1.0
  outer loop
    vertex -6.999999999999998 21.0 1.9999999999999998
    vertex -7.999999999999999 17.000000000000004 1.9999999999999998
    vertex -6.999999999999998 16.999999999999986 1.9999999999999998
  endloop
endfacet
facet normal 1.0 -0.0 -0.0
  outer loop
    vertex -9.999999999999998 21.0 1.9999999999999998
    vertex -9.999999999999998 17.000000000000004 3.9999999999999996
    vertex -9.999999999999998 17.000000000000004 1.9999999999999998
  endloop
endfacet
facet normal 1.0 -0.0 -0.0
  outer loop
    vertex -9.999999999999998 17.000000000000004 3.9999999999999996
    vertex -9.999999999999998 21.0 5.0
    vertex -9.999999999999998 16.999999999999986 5.0
  endloop
endfacet
facet normal 1.0 -0.0 -0.0
  outer loop
    vertex -9.999999999999998 21.0 5.0
    vertex -9.999999999999998 17.000000000000004 3.9999999999999996
    vertex -9.999999999999998 21.0 1.9999999999999998
  endloop
endfacet
facet normal -0.0 -0.0 1.0
  outer loop
    vertex 28.0 -1.9999999999999998 23.0
    vertex 21.5 1.9999999999999998 23.0
    vertex 21.5 -1.9999999999999998 23.0
  endloop
endfacet
facet normal -0.0 -0.0 1.0
  outer loop
    vertex 21.5 1.9999999999999998 23.0
    vertex 28.0 -1.9999999999999998 23.0
    vertex 28.0 1.9999999999999998 23.0
  endloop
endfacet
facet normal -1.0 0.0 0.0
  outer loop
    vertex 12.0 1.9999999999999998 23.0
    vertex 12.0 -1.9999999999999998 20.0
    vertex 12.0 -1.9999999999999998 23.0
  endloop
endfacet
facet normal -1.0 0.0 0.0
  outer loop
    vertex 12.0 -1.9999999999999998 20.0
    vertex 12.0 1.9999999999999998 23.0
    vertex 12.0 1.9999999999999998 20.0
  endloop
endfacet
facet normal 1.0 -0.0 -0.0
  outer loop
    vertex 28.0 1.9999999999999998 20.0
    vertex 28.0 -1.9999999999999998 23.0
    vertex 28.0 -1.9999999999999998 20.0
  endloop
endfacet
facet normal 1.0 -0.0 -0.0
  outer loop
    vertex 28.0 -1.9999999999999998 23.0
    vertex 28.0 1.9999999999999998 20.0
    vertex 28.0 1.9999999999999998 23.0
  endloop
endfacet
facet normal -6.4303592767531e-33 1.0 1.0079864187517233e-32
  outer loop
    vertex 12.272593417969954 1.9999999999999998 25.07055246637189
    vertex 18.5 1.9999999999999998 23.0
    vertex 12.0 1.9999999999999998 23.0
  endloop
endfacet
facet normal -6.4303592767531e-33 1.0 1.0079864187517233e-32
  outer loop
    vertex 18.5 1.9999999999999998 23.0
    vertex 12.272593417969954 1.9999999999999998 25.07055246637189
    vertex 18.551111260566397 1.9999999999999998 23.38822856765378
  endloop
endfacet
facet normal -6.4303592767531e-33 1.0 1.0079864187517233e-32
  outer loop
    vertex 18.551111260566397 1.9999999999999998 23.38822856765378
    vertex 12.272593417969954 1.9999999999999998 25.07055246637189
    vertex 18.700961894323342 1.9999999999999998 23.75
  endloop
endfacet
facet normal -6.4303592767531e-33 1.0 1.0079864187517233e-32
  outer loop
    vertex 18.700961894323342 1.9999999999999998 23.75
    vertex 12.272593417969954 1.9999999999999998 25.07055246637189
    vertex 18.939339828220177 1.9999999999999998 24.060660171779823
  endloop
endfacet
facet normal -6.4303592767531e-33 1.0 1.0079864187517233e-32
  outer loop
    vertex 18.939339828220177 1.9999999999999998 24.060660171779823
    vertex 12.272593417969954 1.9999999999999998 25.07055246637189
    vertex 19.25 1.9999999999999998 24.299038105676658
  endloop
endfacet
facet normal -6.4303592767531e-33 1.0 1.0079864187517233e-32
  outer loop
    vertex 19.25 1.9999999999999998 24.299038105676658
    vertex 12.272593417969954 1.9999999999999998 25.07055246637189
    vertex 19.61177143234622 1.9999999999999998 24.448888739433603
  endloop
endfacet
facet normal -6.4303592767531e-33 1.0 1.0079864187517233e-32
  outer loop
    vertex 19.61177143234622 1.9999999999999998 24.448888739433603
    vertex 12.272593417969954 1.9999999999999998 25.07055246637189
    vertex 20.0 1.9999999999999998 24.5
  endloop
endfacet
facet normal -6.4303592767531e-33 1.0 1.0079864187517233e-32
  outer loop
    vertex 20.0 1.9999999999999998 24.5
    vertex 12.272593417969954 1.9999999999999998 25.07055246637189
    vertex 27.727406612883684 1.9999999999999998 25.070552351224556
  endloop
endfacet
facet normal -6.4303592767531e-33 1.0 1.0079864187517233e-32
  outer loop
    vertex 27.727406612883684 1.9999999999999998 25.070552351224556
    vertex 12.272593417969954 1.9999999999999998 25.07055246637189
    vertex 26.928203240209616 1.9999999999999998 26.99999998279362
  endloop
endfacet
facet normal -6.4303592767531e-33 1.0 1.0079864187517233e-32
  outer loop
    vertex 26.928203240209616 1.9999999999999998 26.99999998279362
    vertex 12.272593417969954 1.9999999999999998 25.07055246637189
    vertex 13.07179681939503 1.9999999999999998 27.000000086031893
  endloop
endfacet
facet normal -6.4303592767531e-33 1.0 1.0079864187517233e-32
  outer loop
    vertex 26.928203240209616 1.9999999999999998 26.99999998279362
    vertex 13.07179681939503 1.9999999999999998 27.000000086031893
    vertex 25.656854270565805 1.9999999999999998 28.656854228418958
  endloop
endfacet
facet normal -6.4303592767531e-33 1.0 1.0079864187517233e-32
  outer loop
    vertex 25.656854270565805 1.9999999999999998 28.656854228418958
    vertex 13.07179681939503 1.9999999999999998 27.000000086031893
    vertex 14.343145813727896 1.9999999999999998 28.65685431271265
  endloop
endfacet
facet normal -6.4303592767531e-33 1.0 1.0079864187517233e-32
  outer loop
    vertex 25.656854270565805 1.9999999999999998 28.656854228418958
    vertex 14.343145813727896 1.9999999999999998 28.65685431271265
    vertex 24.000000034412757 1.9999999999999998 29.928203210407297
  endloop
endfacet
facet normal -6.4303592767531e-33 1.0 1.0079864187517233e-32
  outer loop
    vertex 24.000000034412757 1.9999999999999998 29.928203210407297
    vertex 14.343145813727896 1.9999999999999998 28.65685431271265
    vertex 16.000000068825518 1.9999999999999998 29.92820327001194
  endloop
endfacet
facet normal -6.4303592767531e-33 1.0 1.0079864187517233e-32
  outer loop
    vertex 24.000000034412757 1.9999999999999998 29.928203210407297
    vertex 16.000000068825518 1.9999999999999998 29.92820327001194
    vertex 22.07055240879822 1.9999999999999998 30.727406597456866
  endloop
endfacet
facet normal -6.4303592767531e-33 1.0 1.0079864187517233e-32
  outer loop
    vertex 22.07055240879822 1.9999999999999998 30.727406597456866
    vertex 16.000000068825518 1.9999999999999998 29.92820327001194
    vertex 17.929447706349112 1.9999999999999998 30.727406628310497
  endloop
endfacet
facet normal -6.4303592767531e-33 1.0 1.0079864187517233e-32
  outer loop
    vertex 22.07055240879822 1.9999999999999998 30.727406597456866
    vertex 17.929447706349112 1.9999999999999998 30.727406628310497
    vertex 20.000000059604645 1.9999999999999998 31.0
  endloop
endfacet
facet normal -6.4303592767531e-33 1.0 1.0079864187517233e-32
  outer loop
    vertex 21.448888739433603 1.9999999999999998 23.38822856765378
    vertex 28.0 1.9999999999999998 23.0
    vertex 21.5 1.9999999999999998 23.0
  endloop
endfacet
facet normal -6.4303592767531e-33 1.0 1.0079864187517233e-32
  outer loop
    vertex 28.0 1.9999999999999998 23.0
    vertex 21.448888739433603 1.9999999999999998 23.38822856765378
    vertex 27.727406612883684 1.9999999999999998 25.070552351224556
  endloop
endfacet
facet normal -6.4303592767531e-33 1.0 1.0079864187517233e-32
  outer loop
    vertex 27.727406612883684 1.9999999999999998 25.070552351224556
    vertex 21.448888739433603 1.9999999999999998 23.38822856765378
    vertex 21.299038105676658 1.9999999999999998 23.75
  endloop
endfacet
facet normal -6.4303592767531e-33 1.0 1.0079864187517233e-32
  outer loop
    vertex 27.727406612883684 1.9999999999999998 25.070552351224556
    vertex 21.299038105676658 1.9999999999999998 23.75
    vertex 21.060660171779823 1.9999999999999998 24.060660171779823
  endloop
endfacet
facet normal -6.4303592767531e-33 1.0 1.0079864187517233e-32
  outer loop
    vertex 27.727406612883684 1.9999999999999998 25.070552351224556
    vertex 21.060660171779823 1.9999999999999998 24.060660171779823
    vertex 20.75 1.9999999999999998 24.299038105676658
  endloop
endfacet
facet normal -6.4303592767531e-33 1.0 1.0079864187517233e-32
  outer loop
    vertex 27.727406612883684 1.9999999999999998 25.070552351224556
    vertex 20.75 1.9999999999999998 24.299038105676658
    vertex 20.38822856765378 1.9999999999999998 24.448888739433603
  endloop
endfacet
facet normal -6.4303592767531e-33 1.0 1.0079864187517233e-32
  outer loop
    vertex 27.727406612883684 1.9999999999999998 25.070552351224556
    vertex 20.38822856765378 1.9999999999999998 24.448888739433603
    vertex 20.0 1.9999999999999998 24.5
  endloop
endfacet
facet normal 5.209066641499233e-24 -1.0 9.72727392323882e-16
  outer loop
    vertex 27.727406612883684 -1.9999999999999936 25.070552351224556
    vertex 21.5 -1.9999999999999998 23.0
    vertex 28.0 -1.9999999999999998 23.0
  endloop
endfacet
facet normal 5.209066641499233e-24 -1.0 9.72727392323882e-16
  outer loop
    vertex 21.5 -1.9999999999999998 23.0
    vertex 27.727406612883684 -1.9999999999999936 25.070552351224556
    vertex 21.448888739433603 -1.9999999999999998 23.38822856765378
  endloop
endfacet
facet normal 5.209066641499233e-24 -1.0 9.72727392323882e-16
  outer loop
    vertex 21.448888739433603 -1.9999999999999998 23.38822856765378
    vertex 27.727406612883684 -1.9999999999999936 25.070552351224556
    vertex 21.299038105676658 -1.9999999999999998 23.75
  endloop
endfacet
facet normal 5.209066641499233e-24 -1.0 9.72727392323882e-16
  outer loop
    vertex 21.299038105676658 -1.9999999999999998 23.75
    vertex 27.727406612883684 -1.9999999999999936 25.070552351224556
    vertex 21.060660171779823 -1.9999999999999998 24.060660171779823
  endloop
endfacet
facet normal 5.209066641499233e-24 -1.0 9.72727392323882e-16
  outer loop
    vertex 21.060660171779823 -1.9999999999999998 24.060660171779823
    vertex 27.727406612883684 -1.9999999999999936 25.070552351224556
    vertex 20.75 -1.9999999999999998 24.299038105676658
  endloop
endfacet
facet normal 5.209066641499233e-24 -1.0 9.72727392323882e-16
  outer loop
    vertex 20.75 -1.9999999999999998 24.299038105676658
    vertex 27.727406612883684 -1.9999999999999936 25.070552351224556
    vertex 20.38822856765378 -1.9999999999999998 24.448888739433603
  endloop
endfacet
facet normal 5.209066641499233e-24 -1.0 9.72727392323882e-16
  outer loop
    vertex 20.38822856765378 -1.9999999999999998 24.448888739433603
    vertex 27.727406612883684 -1.9999999999999936 25.070552351224556
    vertex 20.0 -1.9999999999999998 24.5
  endloop
endfacet
facet normal 5.209066641499233e-24 -1.0 9.72727392323882e-16
  outer loop
    vertex 18.551111260566397 -1.9999999999999998 23.38822856765378
    vertex 12.0 -1.9999999999999998 23.0
    vertex 18.5 -1.9999999999999998 23.0
  endloop
endfacet
facet normal 5.209066641499233e-24 -1.0 9.72727392323882e-16
  outer loop
    vertex 12.0 -1.9999999999999998 23.0
    vertex 18.551111260566397 -1.9999999999999998 23.38822856765378
    vertex 12.272593417969954 -1.9999999999999936 25.07055246637189
  endloop
endfacet
facet normal 5.209066641499233e-24 -1.0 9.72727392323882e-16
  outer loop
    vertex 12.272593417969954 -1.9999999999999936 25.07055246637189
    vertex 18.551111260566397 -1.9999999999999998 23.38822856765378
    vertex 18.700961894323342 -1.9999999999999998 23.75
  endloop
endfacet
facet normal 5.209066641499233e-24 -1.0 9.72727392323882e-16
  outer loop
    vertex 12.272593417969954 -1.9999999999999936 25.07055246637189
    vertex 18.700961894323342 -1.9999999999999998 23.75
    vertex 18.939339828220177 -1.9999999999999998 24.060660171779823
  endloop
endfacet
facet normal 5.209066641499233e-24 -1.0 9.72727392323882e-16
  outer loop
    vertex 12.272593417969954 -1.9999999999999936 25.07055246637189
    vertex 18.939339828220177 -1.9999999999999998 24.060660171779823
    vertex 19.25 -1.9999999999999998 24.299038105676658
  endloop
endfacet
facet normal 5.209066641499233e-24 -1.0 9.72727392323882e-16
  outer loop
    vertex 12.272593417969954 -1.9999999999999936 25.07055246637189
    vertex 19.25 -1.9999999999999998 24.299038105676658
    vertex 19.61177143234622 -1.9999999999999998 24.448888739433603
  endloop
endfacet
facet normal 5.209066641499233e-24 -1.0 9.72727392323882e-16
  outer loop
    vertex 12.272593417969954 -1.9999999999999936 25.07055246637189
    vertex 19.61177143234622 -1.9999999999999998 24.448888739433603
    vertex 20.0 -1.9999999999999998 24.5
  endloop
endfacet
facet normal 5.209066641499233e-24 -1.0 9.72727392323882e-16
  outer loop
    vertex 12.272593417969954 -1.9999999999999936 25.07055246637189
    vertex 20.0 -1.9999999999999998 24.5
    vertex 27.727406612883684 -1.9999999999999936 25.070552351224556
  endloop
endfacet
facet normal 5.209066641499233e-24 -1.0 9.72727392323882e-16
  outer loop
    vertex 12.272593417969954 -1.9999999999999936 25.07055246637189
    vertex 27.727406612883684 -1.9999999999999936 25.070552351224556
    vertex 26.928203240209616 -1.9999999999999936 26.99999998279362
  endloop
endfacet
facet normal 5.209066641499233e-24 -1.0 9.72727392323882e-16
  outer loop
    vertex 12.272593417969954 -1.9999999999999936 25.07055246637189
    vertex 26.928203240209616 -1.9999999999999936 26.99999998279362
    vertex 13.07179681939503 -1.9999999999999936 27.000000086031893
  endloop
endfacet
facet normal 5.209066641499233e-24 -1.0 9.72727392323882e-16
  outer loop
    vertex 13.07179681939503 -1.9999999999999936 27.000000086031893
    vertex 26.928203240209616 -1.9999999999999936 26.99999998279362
    vertex 25.656854270565805 -1.9999999999999936 28.656854228418958
  endloop
endfacet
facet normal 5.209066641499233e-24 -1.0 9.72727392323882e-16
  outer loop
    vertex 13.07179681939503 -1.9999999999999936 27.000000086031893
    vertex 25.656854270565805 -1.9999999999999936 28.656854228418958
    vertex 14.343145813727896 -1.9999999999999936 28.65685431271265
  endloop
endfacet
facet normal 5.209066641499233e-24 -1.0 9.72727392323882e-16
  outer loop
    vertex 14.343145813727896 -1.9999999999999936 28.65685431271265
    vertex 25.656854270565805 -1.9999999999999936 28.656854228418958
    vertex 24.000000034412757 -1.9999999999999936 29.928203210407297
  endloop
endfacet
facet normal 5.209066641499233e-24 -1.0 9.72727392323882e-16
  outer loop
    vertex 14.343145813727896 -1.9999999999999936 28.65685431271265
    vertex 24.000000034412757 -1.9999999999999936 29.928203210407297
    vertex 16.000000068825518 -1.9999999999999936 29.92820327001194
  endloop
endfacet
facet normal 5.209066641499233e-24 -1.0 9.72727392323882e-16
  outer loop
    vertex 16.000000068825518 -1.9999999999999936 29.92820327001194
    vertex 24.000000034412757 -1.9999999999999936 29.928203210407297
    vertex 22.07055240879822 -1.9999999999999936 30.727406597456866
  endloop
endfacet
facet normal 5.209066641499233e-24 -1.0 9.72727392323882e-16
  outer loop
    vertex 16.000000068825518 -1.9999999999999936 29.92820327001194
    vertex 22.07055240879822 -1.9999999999999936 30.727406597456866
    vertex 17.929447706349112 -1.9999999999999936 30.727406628310497
  endloop
endfacet
facet normal 5.209066641499233e-24 -1.0 9.72727392323882e-16
  outer loop
    vertex 17.929447706349112 -1.9999999999999936 30.727406628310497
    vertex 22.07055240879822 -1.9999999999999936 30.727406597456866
    vertex 20.000000059604645 -1.9999999999999936 31.0
  endloop
endfacet
facet normal 0.9914448614548519 -2.7681027545137567e-18 0.13052619160448078
  outer loop
    vertex 28.0 1.9999999999999998 23.0
    vertex 27.727406612883684 -1.9999999999999936 25.070552351224556
    vertex 28.0 -1.9999999999999998 23.0
  endloop
endfacet
facet normal 0.9659258266104603 -1.3959943019180264e-18 0.2588190439030696
  outer loop
    vertex 27.727406612883684 -1.9999999999999936 25.070552351224556
    vertex 28.0 1.9999999999999998 23.0
    vertex 27.727406612883684 1.9999999999999998 25.070552351224556
  endloop
endfacet
facet normal -0.965925823717932 -3.0305233983538254e-19 0.25881905469813177
  outer loop
    vertex 12.272593417969954 -1.9999999999999936 25.07055246637189
    vertex 12.0 1.9999999999999998 23.0
    vertex 12.0 -1.9999999999999998 23.0
  endloop
endfacet
facet normal -0.9914448604823557 -6.009193698686011e-19 0.1305261989913219
  outer loop
    vertex 12.0 1.9999999999999998 23.0
    vertex 12.272593417969954 -1.9999999999999936 25.07055246637189
    vertex 12.272593417969954 1.9999999999999998 25.07055246637189
  endloop
endfacet
facet normal -0.8660253975756211 0.0 0.5000000107539873
  outer loop
    vertex 13.07179681939503 1.9999999999999998 27.000000086031893
    vertex 12.272593417969954 -1.9999999999999936 25.07055246637189
    vertex 13.07179681939503 -1.9999999999999936 27.000000086031893
  endloop
endfacet
facet normal -0.965925823717932 -3.0305233983538254e-19 0.25881905469813177
  outer loop
    vertex 12.272593417969954 -1.9999999999999936 25.07055246637189
    vertex 13.07179681939503 1.9999999999999998 27.000000086031893
    vertex 12.272593417969954 1.9999999999999998 25.07055246637189
  endloop
endfacet
facet normal -0.7071067732840136 0.0 0.7071067890890814
  outer loop
    vertex 14.343145813727896 1.9999999999999998 28.65685431271265
    vertex 13.07179681939503 -1.9999999999999936 27.000000086031893
    vertex 14.343145813727896 -1.9999999999999936 28.65685431271265
  endloop
endfacet
facet normal -0.8660253975756211 0.0 0.5000000107539873
  outer loop
    vertex 13.07179681939503 -1.9999999999999936 27.000000086031893
    vertex 14.343145813727896 1.9999999999999998 28.65685431271265
    vertex 13.07179681939503 1.9999999999999998 27.000000086031893
  endloop
endfacet
facet normal -0.4999999913968104 0.0 0.8660254087514925
  outer loop
    vertex 16.000000068825518 -1.9999999999999936 29.92820327001194
    vertex 14.343145813727896 1.9999999999999998 28.65685431271265
    vertex 14.343145813727896 -1.9999999999999936 28.65685431271265
  endloop
endfacet
facet normal -0.7071067732840136 0.0 0.7071067890890814
  outer loop
    vertex 14.343145813727896 1.9999999999999998 28.65685431271265
    vertex 16.000000068825518 -1.9999999999999936 29.92820327001194
    vertex 16.000000068825518 1.9999999999999998 29.92820327001194
  endloop
endfacet
facet normal -0.2588190367063608 0.0 0.9659258285388126
  outer loop
    vertex 17.929447706349112 -1.9999999999999936 30.727406628310497
    vertex 16.000000068825518 1.9999999999999998 29.92820327001194
    vertex 16.000000068825518 -1.9999999999999936 29.92820327001194
  endloop
endfacet
facet normal -0.4999999913968104 0.0 0.8660254087514925
  outer loop
    vertex 16.000000068825518 1.9999999999999998 29.92820327001194
    vertex 17.929447706349112 -1.9999999999999936 30.727406628310497
    vertex 17.929447706349112 1.9999999999999998 30.727406628310497
  endloop
endfacet
facet normal 7.450579758407926e-09 0.0 1.0
  outer loop
    vertex 20.000000059604645 -1.9999999999999936 31.0
    vertex 17.929447706349112 1.9999999999999998 30.727406628310497
    vertex 17.929447706349112 -1.9999999999999936 30.727406628310497
  endloop
endfacet
facet normal -0.2588190367063608 0.0 0.9659258285388126
  outer loop
    vertex 17.929447706349112 1.9999999999999998 30.727406628310497
    vertex 20.000000059604645 -1.9999999999999936 31.0
    vertex 20.000000059604645 1.9999999999999998 31.0
  endloop
endfacet
facet normal 0.2588190510997772 0.0 0.9659258246821083
  outer loop
    vertex 22.07055240879822 -1.9999999999999936 30.727406597456866
    vertex 20.000000059604645 1.9999999999999998 31.0
    vertex 20.000000059604645 -1.9999999999999936 31.0
  endloop
endfacet
facet normal 7.450579758407926e-09 0.0 1.0
  outer loop
    vertex 20.000000059604645 1.9999999999999998 31.0
    vertex 22.07055240879822 -1.9999999999999936 30.727406597456866
    vertex 22.07055240879822 1.9999999999999998 30.727406597456866
  endloop
endfacet
facet normal 0.5000000043015946 0.0 0.8660254013009118
  outer loop
    vertex 24.000000034412757 -1.9999999999999936 29.928203210407297
    vertex 22.07055240879822 1.9999999999999998 30.727406597456866
    vertex 22.07055240879822 -1.9999999999999936 30.727406597456866
  endloop
endfacet
facet normal 0.2588190510997772 0.0 0.9659258246821083
  outer loop
    vertex 22.07055240879822 1.9999999999999998 30.727406597456866
    vertex 24.000000034412757 -1.9999999999999936 29.928203210407297
    vertex 24.000000034412757 1.9999999999999998 29.928203210407297
  endloop
endfacet
facet normal 0.707106783820726 0.0 0.707106778552369
  outer loop
    vertex 25.656854270565805 -1.9999999999999936 28.656854228418958
    vertex 24.000000034412757 1.9999999999999998 29.928203210407297
    vertex 24.000000034412757 -1.9999999999999936 29.928203210407297
  endloop
endfacet
facet normal 0.5000000043015946 0.0 0.8660254013009118
  outer loop
    vertex 24.000000034412757 1.9999999999999998 29.928203210407297
    vertex 25.656854270565805 -1.9999999999999936 28.656854228418958
    vertex 25.656854270565805 1.9999999999999998 28.656854228418958
  endloop
endfacet
facet normal 0.866025405026202 0.0 0.49999999784920307
  outer loop
    vertex 26.928203240209616 1.9999999999999998 26.99999998279362
    vertex 25.656854270565805 -1.9999999999999936 28.656854228418958
    vertex 26.928203240209616 -1.9999999999999936 26.99999998279362
  endloop
endfacet
facet normal 0.707106783820726 0.0 0.707106778552369
  outer loop
    vertex 25.656854270565805 -1.9999999999999936 28.656854228418958
    vertex 26.928203240209616 1.9999999999999998 26.99999998279362
    vertex 25.656854270565805 1.9999999999999998 28.656854228418958
  endloop
endfacet
facet normal 0.9659258266104603 -1.395994301918025e-18 0.2588190439030697
  outer loop
    vertex 27.727406612883684 1.9999999999999998 25.070552351224556
    vertex 26.928203240209616 -1.9999999999999936 26.99999998279362
    vertex 27.727406612883684 -1.9999999999999936 25.070552351224556
  endloop
endfacet
facet normal 0.866025405026202 0.0 0.49999999784920307
  outer loop
    vertex 26.928203240209616 -1.9999999999999936 26.99999998279362
    vertex 27.727406612883684 1.9999999999999998 25.070552351224556
    vertex 26.928203240209616 1.9999999999999998 26.99999998279362
  endloop
endfacet
facet normal -0.0 -0.0 1.0
  outer loop
    vertex 0.0 -1.9999999999999998 20.0
    vertex 1.9999999999999996 1.9999999999999998 20.0
    vertex 0.0 40.0 20.0
  endloop
endfacet
facet normal -0.0 -0.0 1.0
  outer loop
    vertex 1.9999999999999996 1.9999999999999998 20.0
    vertex 0.0 -1.9999999999999998 20.0
    vertex 12.0 -1.9999999999999998 20.0
  endloop
endfacet
facet normal -0.0 -0.0 1.0
  outer loop
    vertex 1.9999999999999996 1.9999999999999998 20.0
    vertex 12.0 -1.9999999999999998 20.0
    vertex 12.0 1.9999999999999998 20.0
  endloop
endfacet
facet normal -0.0 -0.0 1.0
  outer loop
    vertex 170.0 -1.9999999999999998 20.0
    vertex 158.0 1.9999999999999998 20.0
    vertex 158.0 -1.9999999999999998 20.0
  endloop
endfacet
facet normal -0.0 -0.0 1.0
  outer loop
    vertex 158.0 1.9999999999999998 20.0
    vertex 170.0 -1.9999999999999998 20.0
    vertex 168.0 1.9999999999999998 20.0
  endloop
endfacet
facet normal -0.0 -0.0 1.0
  outer loop
    vertex 168.0 1.9999999999999998 20.0
    vertex 170.0 -1.9999999999999998 20.0
    vertex 168.0 38.0 20.0
  endloop
endfacet
facet normal -0.0 -0.0 1.0
  outer loop
    vertex 0.0 40.0 20.0
    vertex 1.9999999999999998 38.0 20.0
    vertex 170.0 40.0 20.0
  endloop
endfacet
facet normal -0.0 -0.0 1.0
  outer loop
    vertex 1.9999999999999998 38.0 20.0
    vertex 0.0 40.0 20.0
    vertex 1.9999999999999996 1.9999999999999998 20.0
  endloop
endfacet
facet normal -0.0 -0.0 1.0
  outer loop
    vertex 170.0 40.0 20.0
    vertex 1.9999999999999998 38.0 20.0
    vertex 168.0 38.0 20.0
  endloop
endfacet
facet normal -0.0 -0.0 1.0
  outer loop
    vertex 170.0 40.0 20.0
    vertex 168.0 38.0 20.0
    vertex 170.0 -1.9999999999999998 20.0
  endloop
endfacet
facet normal 1.0 -0.0 -0.0
  outer loop
    vertex 158.0 1.9999999999999998 20.0
    vertex 158.0 -1.9999999999999998 23.0
    vertex 158.0 -1.9999999999999998 20.0
  endloop
endfacet
facet normal 1.0 -0.0 -0.0
  outer loop
    vertex 158.0 -1.9999999999999998 23.0
    vertex 158.0 1.9999999999999998 20.0
    vertex 158.0 1.9999999999999998 23.0
  endloop
endfacet
facet normal -1.0 0.0 0.0
  outer loop
    vertex 142.0 1.9999999999999998 23.0
    vertex 142.0 -1.9999999999999998 20.0
    vertex 142.0 -1.9999999999999998 23.0
  endloop
endfacet
facet normal -1.0 0.0 0.0
  outer loop
    vertex 142.0 -1.9999999999999998 20.0
    vertex 142.0 1.9999999999999998 23.0
    vertex 142.0 1.9999999999999998 20.0
  endloop
endfacet
facet normal 4.4273090306016245e-48 1.0 -2.0159728476179878e-32
  outer loop
    vertex 142.27259338968744 1.9999999999999998 25.07055236082017
    vertex 148.5 1.9999999999999998 23.0
    vertex 142.0 1.9999999999999998 23.0
  endloop
endfacet
facet normal 4.4273090306016245e-48 1.0 -2.0159728476179878e-32
  outer loop
    vertex 148.5 1.9999999999999998 23.0
    vertex 142.27259338968744 1.9999999999999998 25.07055236082017
    vertex 148.5511112605664 1.9999999999999998 23.38822856765378
  endloop
endfacet
facet normal 4.4273090306016245e-48 1.0 -2.0159728476179878e-32
  outer loop
    vertex 148.5511112605664 1.9999999999999998 23.38822856765378
    vertex 142.27259338968744 1.9999999999999998 25.07055236082017
    vertex 148.70096189432334 1.9999999999999998 23.75
  endloop
endfacet
facet normal 4.4273090306016245e-48 1.0 -2.0159728476179878e-32
  outer loop
    vertex 148.70096189432334 1.9999999999999998 23.75
    vertex 142.27259338968744 1.9999999999999998 25.07055236082017
    vertex 148.93933982822017 1.9999999999999998 24.060660171779823
  endloop
endfacet
facet normal 4.4273090306016245e-48 1.0 -2.0159728476179878e-32
  outer loop
    vertex 148.93933982822017 1.9999999999999998 24.060660171779823
    vertex 142.27259338968744 1.9999999999999998 25.07055236082017
    vertex 149.25 1.9999999999999998 24.299038105676658
  endloop
endfacet
facet normal 4.4273090306016245e-48 1.0 -2.0159728476179878e-32
  outer loop
    vertex 149.25 1.9999999999999998 24.299038105676658
    vertex 142.27259338968744 1.9999999999999998 25.07055236082017
    vertex 149.61177143234622 1.9999999999999998 24.448888739433603
  endloop
endfacet
facet normal 4.4273090306016245e-48 1.0 -2.0159728476179878e-32
  outer loop
    vertex 149.61177143234622 1.9999999999999998 24.448888739433603
    vertex 142.27259338968744 1.9999999999999998 25.07055236082017
    vertex 150.0 1.9999999999999998 24.5
  endloop
endfacet
facet normal 4.4273090306016245e-48 1.0 -2.0159728476179878e-32
  outer loop
    vertex 151.44888873943358 1.9999999999999998 23.38822856765378
    vertex 158.0 1.9999999999999998 23.0
    vertex 151.5 1.9999999999999998 23.0
  endloop
endfacet
facet normal 4.4273090306016245e-48 1.0 -2.0159728476179878e-32
  outer loop
    vertex 158.0 1.9999999999999998 23.0
    vertex 151.44888873943358 1.9999999999999998 23.38822856765378
    vertex 157.72740661031256 1.9999999999999998 25.07055236082017
  endloop
endfacet
facet normal 4.4273090306016245e-48 1.0 -2.0159728476179878e-32
  outer loop
    vertex 157.72740661031256 1.9999999999999998 25.07055236082017
    vertex 151.44888873943358 1.9999999999999998 23.38822856765378
    vertex 151.29903810567666 1.9999999999999998 23.75
  endloop
endfacet
facet normal 4.4273090306016245e-48 1.0 -2.0159728476179878e-32
  outer loop
    vertex 157.72740661031256 1.9999999999999998 25.07055236082017
    vertex 151.29903810567666 1.9999999999999998 23.75
    vertex 151.06066017177983 1.9999999999999998 24.060660171779823
  endloop
endfacet
facet normal 4.4273090306016245e-48 1.0 -2.0159728476179878e-32
  outer loop
    vertex 157.72740661031256 1.9999999999999998 25.07055236082017
    vertex 151.06066017177983 1.9999999999999998 24.060660171779823
    vertex 150.75 1.9999999999999998 24.299038105676658
  endloop
endfacet
facet normal 4.4273090306016245e-48 1.0 -2.0159728476179878e-32
  outer loop
    vertex 157.72740661031256 1.9999999999999998 25.07055236082017
    vertex 150.75 1.9999999999999998 24.299038105676658
    vertex 150.38822856765378 1.9999999999999998 24.448888739433603
  endloop
endfacet
facet normal 4.4273090306016245e-48 1.0 -2.0159728476179878e-32
  outer loop
    vertex 157.72740661031256 1.9999999999999998 25.07055236082017
    vertex 150.38822856765378 1.9999999999999998 24.448888739433603
    vertex 150.0 1.9999999999999998 24.5
  endloop
endfacet
facet normal 4.4273090306016245e-48 1.0 -2.0159728476179878e-32
  outer loop
    vertex 157.72740661031256 1.9999999999999998 25.07055236082017
    vertex 150.0 1.9999999999999998 24.5
    vertex 142.27259338968744 1.9999999999999998 25.07055236082017
  endloop
endfacet
facet normal 4.4273090306016245e-48 1.0 -2.0159728476179878e-32
  outer loop
    vertex 157.72740661031256 1.9999999999999998 25.07055236082017
    vertex 142.27259338968744 1.9999999999999998 25.07055236082017
    vertex 143.07179676972447 1.9999999999999998 27.0
  endloop
endfacet
facet normal 4.4273090306016245e-48 1.0 -2.0159728476179878e-32
  outer loop
    vertex 157.72740661031256 1.9999999999999998 25.07055236082017
    vertex 143.07179676972447 1.9999999999999998 27.0
    vertex 156.9282032302755 1.9999999999999998 27.0
  endloop
endfacet
facet normal 4.4273090306016245e-48 1.0 -2.0159728476179878e-32
  outer loop
    vertex 156.9282032302755 1.9999999999999998 27.0
    vertex 143.07179676972447 1.9999999999999998 27.0
    vertex 144.3431457505076 1.9999999999999998 28.656854249492387
  endloop
endfacet
facet normal 4.4273090306016245e-48 1.0 -2.0159728476179878e-32
  outer loop
    vertex 156.9282032302755 1.9999999999999998 27.0
    vertex 144.3431457505076 1.9999999999999998 28.656854249492387
    vertex 155.6568542494924 1.9999999999999998 28.656854249492387
  endloop
endfacet
facet normal 4.4273090306016245e-48 1.0 -2.0159728476179878e-32
  outer loop
    vertex 155.6568542494924 1.9999999999999998 28.656854249492387
    vertex 144.3431457505076 1.9999999999999998 28.656854249492387
    vertex 146.0 1.9999999999999998 29.928203230275518
  endloop
endfacet
facet normal 4.4273090306016245e-48 1.0 -2.0159728476179878e-32
  outer loop
    vertex 155.6568542494924 1.9999999999999998 28.656854249492387
    vertex 146.0 1.9999999999999998 29.928203230275518
    vertex 154.0 1.9999999999999998 29.928203230275518
  endloop
endfacet
facet normal 4.4273090306016245e-48 1.0 -2.0159728476179878e-32
  outer loop
    vertex 154.0 1.9999999999999998 29.928203230275518
    vertex 146.0 1.9999999999999998 29.928203230275518
    vertex 147.92944763917984 1.9999999999999998 30.727406610312556
  endloop
endfacet
facet normal 4.4273090306016245e-48 1.0 -2.0159728476179878e-32
  outer loop
    vertex 154.0 1.9999999999999998 29.928203230275518
    vertex 147.92944763917984 1.9999999999999998 30.727406610312556
    vertex 152.07055236082016 1.9999999999999998 30.727406610312556
  endloop
endfacet
facet normal 4.4273090306016245e-48 1.0 -2.0159728476179878e-32
  outer loop
    vertex 152.07055236082016 1.9999999999999998 30.727406610312556
    vertex 147.92944763917984 1.9999999999999998 30.727406610312556
    vertex 150.0 1.9999999999999998 31.00000000000001
  endloop
endfacet
facet normal -4.637096013970456e-32 -1.0 9.727273904464002e-16
  outer loop
    vertex 157.72740661031256 -1.9999999999999936 25.07055236082017
    vertex 151.5 -1.9999999999999998 23.0
    vertex 158.0 -1.9999999999999998 23.0
  endloop
endfacet
facet normal -4.637096013970456e-32 -1.0 9.727273904464002e-16
  outer loop
    vertex 151.5 -1.9999999999999998 23.0
    vertex 157.72740661031256 -1.9999999999999936 25.07055236082017
    vertex 151.44888873943358 -1.9999999999999998 23.38822856765378
  endloop
endfacet
facet normal -4.637096013970456e-32 -1.0 9.727273904464002e-16
  outer loop
    vertex 151.44888873943358 -1.9999999999999998 23.38822856765378
    vertex 157.72740661031256 -1.9999999999999936 25.07055236082017
    vertex 151.29903810567666 -1.9999999999999998 23.75
  endloop
endfacet
facet normal -4.637096013970456e-32 -1.0 9.727273904464002e-16
  outer loop
    vertex 151.29903810567666 -1.9999999999999998 23.75
    vertex 157.72740661031256 -1.9999999999999936 25.07055236082017
    vertex 151.06066017177983 -1.9999999999999998 24.060660171779823
  endloop
endfacet
facet normal -4.637096013970456e-32 -1.0 9.727273904464002e-16
  outer loop
    vertex 151.06066017177983 -1.9999999999999998 24.060660171779823
    vertex 157.72740661031256 -1.9999999999999936 25.07055236082017
    vertex 150.75 -1.9999999999999998 24.299038105676658
  endloop
endfacet
facet normal -4.637096013970456e-32 -1.0 9.727273904464002e-16
  outer loop
    vertex 150.75 -1.9999999999999998 24.299038105676658
    vertex 157.72740661031256 -1.9999999999999936 25.07055236082017
    vertex 150.38822856765378 -1.9999999999999998 24.448888739433603
  endloop
endfacet
facet normal -4.637096013970456e-32 -1.0 9.727273904464002e-16
  outer loop
    vertex 150.38822856765378 -1.9999999999999998 24.448888739433603
    vertex 157.72740661031256 -1.9999999999999936 25.07055236082017
    vertex 150.0 -1.9999999999999998 24.5
  endloop
endfacet
facet normal -4.637096013970456e-32 -1.0 9.727273904464002e-16
  outer loop
    vertex 148.5511112605664 -1.9999999999999998 23.38822856765378
    vertex 142.0 -1.9999999999999998 23.0
    vertex 148.5 -1.9999999999999998 23.0
  endloop
endfacet
facet normal -4.637096013970456e-32 -1.0 9.727273904464002e-16
  outer loop
    vertex 142.0 -1.9999999999999998 23.0
    vertex 148.5511112605664 -1.9999999999999998 23.38822856765378
    vertex 142.27259338968744 -1.9999999999999936 25.07055236082017
  endloop
endfacet
facet normal -4.637096013970456e-32 -1.0 9.727273904464002e-16
  outer loop
    vertex 142.27259338968744 -1.9999999999999936 25.07055236082017
    vertex 148.5511112605664 -1.9999999999999998 23.38822856765378
    vertex 148.70096189432334 -1.9999999999999998 23.75
  endloop
endfacet
facet normal -4.637096013970456e-32 -1.0 9.727273904464002e-16
  outer loop
    vertex 142.27259338968744 -1.9999999999999936 25.07055236082017
    vertex 148.70096189432334 -1.9999999999999998 23.75
    vertex 148.93933982822017 -1.9999999999999998 24.060660171779823
  endloop
endfacet
facet normal -4.637096013970456e-32 -1.0 9.727273904464002e-16
  outer loop
    vertex 142.27259338968744 -1.9999999999999936 25.07055236082017
    vertex 148.93933982822017 -1.9999999999999998 24.060660171779823
    vertex 149.25 -1.9999999999999998 24.299038105676658
  endloop
endfacet
facet normal -4.637096013970456e-32 -1.0 9.727273904464002e-16
  outer loop
    vertex 142.27259338968744 -1.9999999999999936 25.07055236082017
    vertex 149.25 -1.9999999999999998 24.299038105676658
    vertex 149.61177143234622 -1.9999999999999998 24.448888739433603
  endloop
endfacet
facet normal -4.637096013970456e-32 -1.0 9.727273904464002e-16
  outer loop
    vertex 142.27259338968744 -1.9999999999999936 25.07055236082017
    vertex 149.61177143234622 -1.9999999999999998 24.448888739433603
    vertex 150.0 -1.9999999999999998 24.5
  endloop
endfacet
facet normal -4.637096013970456e-32 -1.0 9.727273904464002e-16
  outer loop
    vertex 142.27259338968744 -1.9999999999999936 25.07055236082017
    vertex 150.0 -1.9999999999999998 24.5
    vertex 157.72740661031256 -1.9999999999999936 25.07055236082017
  endloop
endfacet
facet normal -4.637096013970456e-32 -1.0 9.727273904464002e-16
  outer loop
    vertex 142.27259338968744 -1.9999999999999936 25.07055236082017
    vertex 157.72740661031256 -1.9999999999999936 25.07055236082017
    vertex 156.9282032302755 -1.9999999999999936 27.0
  endloop
endfacet
facet normal -4.637096013970456e-32 -1.0 9.727273904464002e-16
  outer loop
    vertex 142.27259338968744 -1.9999999999999936 25.07055236082017
    vertex 156.9282032302755 -1.9999999999999936 27.0
    vertex 143.07179676972447 -1.9999999999999936 27.0
  endloop
endfacet
facet normal -4.637096013970456e-32 -1.0 9.727273904464002e-16
  outer loop
    vertex 143.07179676972447 -1.9999999999999936 27.0
    vertex 156.9282032302755 -1.9999999999999936 27.0
    vertex 155.6568542494924 -1.9999999999999936 28.656854249492387
  endloop
endfacet
facet normal -4.637096013970456e-32 -1.0 9.727273904464002e-16
  outer loop
    vertex 143.07179676972447 -1.9999999999999936 27.0
    vertex 155.6568542494924 -1.9999999999999936 28.656854249492387
    vertex 144.3431457505076 -1.9999999999999936 28.656854249492387
  endloop
endfacet
facet normal -4.637096013970456e-32 -1.0 9.727273904464002e-16
  outer loop
    vertex 144.3431457505076 -1.9999999999999936 28.656854249492387
    vertex 155.6568542494924 -1.9999999999999936 28.656854249492387
    vertex 154.0 -1.9999999999999936 29.928203230275518
  endloop
endfacet
facet normal -4.637096013970456e-32 -1.0 9.727273904464002e-16
  outer loop
    vertex 144.3431457505076 -1.9999999999999936 28.656854249492387
    vertex 154.0 -1.9999999999999936 29.928203230275518
    vertex 146.0 -1.9999999999999936 29.928203230275518
  endloop
endfacet
facet normal -4.637096013970456e-32 -1.0 9.727273904464002e-16
  outer loop
    vertex 146.0 -1.9999999999999936 29.928203230275518
    vertex 154.0 -1.9999999999999936 29.928203230275518
    vertex 152.07055236082016 -1.9999999999999936 30.727406610312556
  endloop
endfacet
facet normal -4.637096013970456e-32 -1.0 9.727273904464002e-16
  outer loop
    vertex 146.0 -1.9999999999999936 29.928203230275518
    vertex 152.07055236082016 -1.9999999999999936 30.727406610312556
    vertex 147.92944763917984 -1.9999999999999936 30.727406610312556
  endloop
endfacet
facet normal -4.637096013970456e-32 -1.0 9.727273904464002e-16
  outer loop
    vertex 147.92944763917984 -1.9999999999999936 30.727406610312556
    vertex 152.07055236082016 -1.9999999999999936 30.727406610312556
    vertex 150.0 -1.9999999999999936 31.00000000000001
  endloop
endfacet
facet normal -0.9659258262890682 -2.4488444719482317e-19 0.25881904510252146
  outer loop
    vertex 142.27259338968744 -1.9999999999999936 25.07055236082017
    vertex 142.0 1.9999999999999998 23.0
    vertex 142.0 -1.9999999999999998 23.0
  endloop
endfacet
facet normal -0.9914448613738105 -4.855788536033467e-19 0.13052619222005163
  outer loop
    vertex 142.0 1.9999999999999998 23.0
    vertex 142.27259338968744 -1.9999999999999936 25.07055236082017
    vertex 142.27259338968744 1.9999999999999998 25.07055236082017
  endloop
endfacet
facet normal -0.8660254037844395 0.0 0.49999999999999867
  outer loop
    vertex 143.07179676972447 1.9999999999999998 27.0
    vertex 142.27259338968744 -1.9999999999999936 25.07055236082017
    vertex 143.07179676972447 -1.9999999999999936 27.0
  endloop
endfacet
facet normal -0.9659258262890682 -2.4488444719482317e-19 0.25881904510252146
  outer loop
    vertex 142.27259338968744 -1.9999999999999936 25.07055236082017
    vertex 143.07179676972447 1.9999999999999998 27.0
    vertex 142.27259338968744 1.9999999999999998 25.07055236082017
  endloop
endfacet
facet normal -0.7071067811865472 0.0 0.7071067811865478
  outer loop
    vertex 144.3431457505076 1.9999999999999998 28.656854249492387
    vertex 143.07179676972447 -1.9999999999999936 27.0
    vertex 144.3431457505076 -1.9999999999999936 28.656854249492387
  endloop
endfacet
facet normal -0.8660254037844395 0.0 0.49999999999999867
  outer loop
    vertex 143.07179676972447 -1.9999999999999936 27.0
    vertex 144.3431457505076 1.9999999999999998 28.656854249492387
    vertex 143.07179676972447 1.9999999999999998 27.0
  endloop
endfacet
facet normal -0.4999999999999984 0.0 0.8660254037844397
  outer loop
    vertex 146.0 -1.9999999999999936 29.928203230275518
    vertex 144.3431457505076 1.9999999999999998 28.656854249492387
    vertex 144.3431457505076 -1.9999999999999936 28.656854249492387
  endloop
endfacet
facet normal -0.7071067811865472 0.0 0.7071067811865478
  outer loop
    vertex 144.3431457505076 1.9999999999999998 28.656854249492387
    vertex 146.0 -1.9999999999999936 29.928203230275518
    vertex 146.0 1.9999999999999998 29.928203230275518
  endloop
endfacet
facet normal -0.2588190451025219 0.0 0.9659258262890681
  outer loop
    vertex 147.92944763917984 -1.9999999999999936 30.727406610312556
    vertex 146.0 1.9999999999999998 29.928203230275518
    vertex 146.0 -1.9999999999999936 29.928203230275518
  endloop
endfacet
facet normal -0.4999999999999984 0.0 0.8660254037844397
  outer loop
    vertex 146.0 1.9999999999999998 29.928203230275518
    vertex 147.92944763917984 -1.9999999999999936 30.727406610312556
    vertex 147.92944763917984 1.9999999999999998 30.727406610312556
  endloop
endfacet
facet normal 0.0 0.0 1.0
  outer loop
    vertex 150.0 -1.9999999999999936 31.00000000000001
    vertex 147.92944763917984 1.9999999999999998 30.727406610312556
    vertex 147.92944763917984 -1.9999999999999936 30.727406610312556
  endloop
endfacet
facet normal -0.2588190451025219 0.0 0.9659258262890681
  outer loop
    vertex 147.92944763917984 1.9999999999999998 30.727406610312556
    vertex 150.0 -1.9999999999999936 31.00000000000001
    vertex 150.0 1.9999999999999998 31.00000000000001
  endloop
endfacet
facet normal 0.25881904510251985 0.0 0.9659258262890685
  outer loop
    vertex 152.07055236082016 -1.9999999999999936 30.727406610312556
    vertex 150.0 1.9999999999999998 31.00000000000001
    vertex 150.0 -1.9999999999999936 31.00000000000001
  endloop
endfacet
facet normal 0.0 0.0 1.0
  outer loop
    vertex 150.0 1.9999999999999998 31.00000000000001
    vertex 152.07055236082016 -1.9999999999999936 30.727406610312556
    vertex 152.07055236082016 1.9999999999999998 30.727406610312556
  endloop
endfacet
facet normal 0.4999999999999994 0.0 0.8660254037844392
  outer loop
    vertex 154.0 -1.9999999999999936 29.928203230275518
    vertex 152.07055236082016 1.9999999999999998 30.727406610312556
    vertex 152.07055236082016 -1.9999999999999936 30.727406610312556
  endloop
endfacet
facet normal 0.25881904510251985 0.0 0.9659258262890685
  outer loop
    vertex 152.07055236082016 1.9999999999999998 30.727406610312556
    vertex 154.0 -1.9999999999999936 29.928203230275518
    vertex 154.0 1.9999999999999998 29.928203230275518
  endloop
endfacet
facet normal 0.7071067811865496 0.0 0.7071067811865455
  outer loop
    vertex 155.6568542494924 -1.9999999999999936 28.656854249492387
    vertex 154.0 1.9999999999999998 29.928203230275518
    vertex 154.0 -1.9999999999999936 29.928203230275518
  endloop
endfacet
facet normal 0.4999999999999994 0.0 0.8660254037844392
  outer loop
    vertex 154.0 1.9999999999999998 29.928203230275518
    vertex 155.6568542494924 -1.9999999999999936 28.656854249492387
    vertex 155.6568542494924 1.9999999999999998 28.656854249492387
  endloop
endfacet
facet normal 0.8660254037844395 0.0 0.49999999999999867
  outer loop
    vertex 156.9282032302755 1.9999999999999998 27.0
    vertex 155.6568542494924 -1.9999999999999936 28.656854249492387
    vertex 156.9282032302755 -1.9999999999999936 27.0
  endloop
endfacet
facet normal 0.7071067811865496 0.0 0.7071067811865455
  outer loop
    vertex 155.6568542494924 -1.9999999999999936 28.656854249492387
    vertex 156.9282032302755 1.9999999999999998 27.0
    vertex 155.6568542494924 1.9999999999999998 28.656854249492387
  endloop
endfacet
facet normal 0.9659258262890681 -2.448844471948274e-19 0.25881904510252157
  outer loop
    vertex 157.72740661031256 1.9999999999999998 25.07055236082017
    vertex 156.9282032302755 -1.9999999999999936 27.0
    vertex 157.72740661031256 -1.9999999999999936 25.07055236082017
  endloop
endfacet
facet normal 0.8660254037844395 0.0 0.49999999999999867
  outer loop
    vertex 156.9282032302755 -1.9999999999999936 27.0
    vertex 157.72740661031256 1.9999999999999998 25.07055236082017
    vertex 156.9282032302755 1.9999999999999998 27.0
  endloop
endfacet
facet normal 0.9914448613738105 -4.8557885360335565e-19 0.13052619222005163
  outer loop
    vertex 158.0 1.9999999999999998 23.0
    vertex 157.72740661031256 -1.9999999999999936 25.07055236082017
    vertex 158.0 -1.9999999999999998 23.0
  endloop
endfacet
facet normal 0.9659258262890682 -2.448844471948277e-19 0.25881904510252146
  outer loop
    vertex 157.72740661031256 -1.9999999999999936 25.07055236082017
    vertex 158.0 1.9999999999999998 23.0
    vertex 157.72740661031256 1.9999999999999998 25.07055236082017
  endloop
endfacet
facet normal 0.0 0.0 -1.0
  outer loop
    vertex 148.5 1.9999999999999998 23.0
    vertex 142.0 -1.9999999999999998 23.0
    vertex 142.0 1.9999999999999998 23.0
  endloop
endfacet
facet normal 0.0 0.0 -1.0
  outer loop
    vertex 142.0 -1.9999999999999998 23.0
    vertex 148.5 1.9999999999999998 23.0
    vertex 148.5 -1.9999999999999998 23.0
  endloop
endfacet
facet normal 0.9914448613738114 -0.0 -0.1305261922200446
  outer loop
    vertex 148.5 1.9999999999999998 23.0
    vertex 148.5511112605664 -1.9999999999999998 23.38822856765378
    vertex 148.5 -1.9999999999999998 23.0
  endloop
endfacet
facet normal 0.9659258262890671 0.0 -0.2588190451025255
  outer loop
    vertex 148.5511112605664 -1.9999999999999998 23.38822856765378
    vertex 148.5 1.9999999999999998 23.0
    vertex 148.5511112605664 1.9999999999999998 23.38822856765378
  endloop
endfacet
facet normal 0.9659258262890671 0.0 -0.2588190451025255
  outer loop
    vertex 148.5511112605664 1.9999999999999998 23.38822856765378
    vertex 148.70096189432334 -1.9999999999999998 23.75
    vertex 148.5511112605664 -1.9999999999999998 23.38822856765378
  endloop
endfacet
facet normal 0.866025403784439 0.0 -0.49999999999999933
  outer loop
    vertex 148.70096189432334 -1.9999999999999998 23.75
    vertex 148.5511112605664 1.9999999999999998 23.38822856765378
    vertex 148.70096189432334 1.9999999999999998 23.75
  endloop
endfacet
facet normal 0.866025403784439 0.0 -0.49999999999999933
  outer loop
    vertex 148.70096189432334 1.9999999999999998 23.75
    vertex 148.93933982822017 -1.9999999999999998 24.060660171779823
    vertex 148.70096189432334 -1.9999999999999998 23.75
  endloop
endfacet
facet normal 0.7071067811865588 0.0 -0.7071067811865364
  outer loop
    vertex 148.93933982822017 -1.9999999999999998 24.060660171779823
    vertex 148.70096189432334 1.9999999999999998 23.75
    vertex 148.93933982822017 1.9999999999999998 24.060660171779823
  endloop
endfacet
facet normal 0.4999999999999996 0.0 -0.8660254037844389
  outer loop
    vertex 149.25 1.9999999999999998 24.299038105676658
    vertex 148.93933982822017 -1.9999999999999998 24.060660171779823
    vertex 148.93933982822017 1.9999999999999998 24.060660171779823
  endloop
endfacet
facet normal 0.7071067811865588 0.0 -0.7071067811865364
  outer loop
    vertex 148.93933982822017 -1.9999999999999998 24.060660171779823
    vertex 149.25 1.9999999999999998 24.299038105676658
    vertex 149.25 -1.9999999999999998 24.299038105676658
  endloop
endfacet
facet normal 0.25881904510251447 0.0 -0.96592582628907
  outer loop
    vertex 149.61177143234622 1.9999999999999998 24.448888739433603
    vertex 149.25 -1.9999999999999998 24.299038105676658
    vertex 149.25 1.9999999999999998 24.299038105676658
  endloop
endfacet
facet normal 0.4999999999999996 0.0 -0.8660254037844389
  outer loop
    vertex 149.25 -1.9999999999999998 24.299038105676658
    vertex 149.61177143234622 1.9999999999999998 24.448888739433603
    vertex 149.61177143234622 -1.9999999999999998 24.448888739433603
  endloop
endfacet
facet normal 0.0 0.0 -1.0
  outer loop
    vertex 150.0 1.9999999999999998 24.5
    vertex 149.61177143234622 -1.9999999999999998 24.448888739433603
    vertex 149.61177143234622 1.9999999999999998 24.448888739433603
  endloop
endfacet
facet normal 0.25881904510251447 0.0 -0.96592582628907
  outer loop
    vertex 149.61177143234622 -1.9999999999999998 24.448888739433603
    vertex 150.0 1.9999999999999998 24.5
    vertex 150.0 -1.9999999999999998 24.5
  endloop
endfacet
facet normal -0.25881904510251447 0.0 -0.96592582628907
  outer loop
    vertex 150.38822856765378 1.9999999999999998 24.448888739433603
    vertex 150.0 -1.9999999999999998 24.5
    vertex 150.0 1.9999999999999998 24.5
  endloop
endfacet
facet normal 0.0 0.0 -1.0
  outer loop
    vertex 150.0 -1.9999999999999998 24.5
    vertex 150.38822856765378 1.9999999999999998 24.448888739433603
    vertex 150.38822856765378 -1.9999999999999998 24.448888739433603
  endloop
endfacet
facet normal -0.4999999999999996 0.0 -0.8660254037844389
  outer loop
    vertex 150.75 1.9999999999999998 24.299038105676658
    vertex 150.38822856765378 -1.9999999999999998 24.448888739433603
    vertex 150.38822856765378 1.9999999999999998 24.448888739433603
  endloop
endfacet
facet normal -0.25881904510251447 0.0 -0.96592582628907
  outer loop
    vertex 150.38822856765378 -1.9999999999999998 24.448888739433603
    vertex 150.75 1.9999999999999998 24.299038105676658
    vertex 150.75 -1.9999999999999998 24.299038105676658
  endloop
endfacet
facet normal -0.7071067811865603 0.0 -0.7071067811865348
  outer loop
    vertex 151.06066017177983 1.9999999999999998 24.060660171779823
    vertex 150.75 -1.9999999999999998 24.299038105676658
    vertex 150.75 1.9999999999999998 24.299038105676658
  endloop
endfacet
facet normal -0.4999999999999996 0.0 -0.8660254037844389
  outer loop
    vertex 150.75 -1.9999999999999998 24.299038105676658
    vertex 151.06066017177983 1.9999999999999998 24.060660171779823
    vertex 151.06066017177983 -1.9999999999999998 24.060660171779823
  endloop
endfacet
facet normal -0.7071067811865603 0.0 -0.7071067811865348
  outer loop
    vertex 151.06066017177983 1.9999999999999998 24.060660171779823
    vertex 151.29903810567666 -1.9999999999999998 23.75
    vertex 151.06066017177983 -1.9999999999999998 24.060660171779823
  endloop
endfacet
facet normal -0.8660254037844394 0.0 -0.4999999999999986
  outer loop
    vertex 151.29903810567666 -1.9999999999999998 23.75
    vertex 151.06066017177983 1.9999999999999998 24.060660171779823
    vertex 151.29903810567666 1.9999999999999998 23.75
  endloop
endfacet
facet normal -0.8660254037844394 0.0 -0.4999999999999986
  outer loop
    vertex 151.29903810567666 1.9999999999999998 23.75
    vertex 151.44888873943358 -1.9999999999999998 23.38822856765378
    vertex 151.29903810567666 -1.9999999999999998 23.75
  endloop
endfacet
facet normal -0.9659258262890665 0.0 -0.2588190451025268
  outer loop
    vertex 151.44888873943358 -1.9999999999999998 23.38822856765378
    vertex 151.29903810567666 1.9999999999999998 23.75
    vertex 151.44888873943358 1.9999999999999998 23.38822856765378
  endloop
endfacet
facet normal -0.9659258262890665 0.0 -0.2588190451025268
  outer loop
    vertex 151.44888873943358 1.9999999999999998 23.38822856765378
    vertex 151.5 -1.9999999999999998 23.0
    vertex 151.44888873943358 -1.9999999999999998 23.38822856765378
  endloop
endfacet
facet normal -0.9914448613738114 0.0 -0.1305261922200446
  outer loop
    vertex 151.5 -1.9999999999999998 23.0
    vertex 151.44888873943358 1.9999999999999998 23.38822856765378
    vertex 151.5 1.9999999999999998 23.0
  endloop
endfacet
facet normal 0.0 0.0 -1.0
  outer loop
    vertex 158.0 1.9999999999999998 23.0
    vertex 151.5 -1.9999999999999998 23.0
    vertex 151.5 1.9999999999999998 23.0
  endloop
endfacet
facet normal 0.0 0.0 -1.0
  outer loop
    vertex 151.5 -1.9999999999999998 23.0
    vertex 158.0 1.9999999999999998 23.0
    vertex 158.0 -1.9999999999999998 23.0
  endloop
endfacet
facet normal -0.9914448613738114 0.0 0.1305261922200446
  outer loop
    vertex 151.5 1.9999999999999998 23.0
    vertex 151.44888873943358 -1.9999999999999998 22.61177143234622
    vertex 151.5 -1.9999999999999998 23.0
  endloop
endfacet
facet normal -0.9659258262890671 0.0 0.2588190451025255
  outer loop
    vertex 151.44888873943358 -1.9999999999999998 22.61177143234622
    vertex 151.5 1.9999999999999998 23.0
    vertex 151.44888873943358 1.9999999999999998 22.61177143234622
  endloop
endfacet
facet normal -0.9659258262890671 0.0 0.2588190451025255
  outer loop
    vertex 151.44888873943358 1.9999999999999998 22.61177143234622
    vertex 151.29903810567666 -1.9999999999999998 22.25
    vertex 151.44888873943358 -1.9999999999999998 22.61177143234622
  endloop
endfacet
facet normal -0.866025403784439 0.0 0.49999999999999933
  outer loop
    vertex 151.29903810567666 -1.9999999999999998 22.25
    vertex 151.44888873943358 1.9999999999999998 22.61177143234622
    vertex 151.29903810567666 1.9999999999999998 22.25
  endloop
endfacet
facet normal -0.866025403784439 0.0 0.49999999999999933
  outer loop
    vertex 151.29903810567666 1.9999999999999998 22.25
    vertex 151.06066017177983 -1.9999999999999998 21.93933982822018
    vertex 151.29903810567666 -1.9999999999999998 22.25
  endloop
endfacet
facet normal -0.7071067811865588 0.0 0.7071067811865364
  outer loop
    vertex 151.06066017177983 -1.9999999999999998 21.93933982822018
    vertex 151.29903810567666 1.9999999999999998 22.25
    vertex 151.06066017177983 1.9999999999999998 21.93933982822018
  endloop
endfacet
facet normal -0.7071067811865588 0.0 0.7071067811865364
  outer loop
    vertex 151.06066017177983 -1.9999999999999998 21.93933982822018
    vertex 150.75 1.9999999999999998 21.700961894323342
    vertex 150.75 -1.9999999999999998 21.700961894323342
  endloop
endfacet
facet normal -0.4999999999999996 0.0 0.8660254037844389
  outer loop
    vertex 150.75 1.9999999999999998 21.700961894323342
    vertex 151.06066017177983 -1.9999999999999998 21.93933982822018
    vertex 151.06066017177983 1.9999999999999998 21.93933982822018
  endloop
endfacet
facet normal -0.4999999999999996 0.0 0.8660254037844389
  outer loop
    vertex 150.75 -1.9999999999999998 21.700961894323342
    vertex 150.38822856765378 1.9999999999999998 21.551111260566397
    vertex 150.38822856765378 -1.9999999999999998 21.551111260566397
  endloop
endfacet
facet normal -0.25881904510251447 0.0 0.96592582628907
  outer loop
    vertex 150.38822856765378 1.9999999999999998 21.551111260566397
    vertex 150.75 -1.9999999999999998 21.700961894323342
    vertex 150.75 1.9999999999999998 21.700961894323342
  endloop
endfacet
facet normal -0.25881904510251447 0.0 0.96592582628907
  outer loop
    vertex 150.38822856765378 -1.9999999999999998 21.551111260566397
    vertex 150.0 1.9999999999999998 21.5
    vertex 150.0 -1.9999999999999998 21.5
  endloop
endfacet
facet normal 0.0 0.0 1.0
  outer loop
    vertex 150.0 1.9999999999999998 21.5
    vertex 150.38822856765378 -1.9999999999999998 21.551111260566397
    vertex 150.38822856765378 1.9999999999999998 21.551111260566397
  endloop
endfacet
facet normal 0.0 0.0 1.0
  outer loop
    vertex 150.0 -1.9999999999999998 21.5
    vertex 149.61177143234622 1.9999999999999998 21.551111260566397
    vertex 149.61177143234622 -1.9999999999999998 21.551111260566397
  endloop
endfacet
facet normal 0.25881904510251447 0.0 0.96592582628907
  outer loop
    vertex 149.61177143234622 1.9999999999999998 21.551111260566397
    vertex 150.0 -1.9999999999999998 21.5
    vertex 150.0 1.9999999999999998 21.5
  endloop
endfacet
facet normal 0.25881904510251447 0.0 0.96592582628907
  outer loop
    vertex 149.61177143234622 -1.9999999999999998 21.551111260566397
    vertex 149.25 1.9999999999999998 21.700961894323342
    vertex 149.25 -1.9999999999999998 21.700961894323342
  endloop
endfacet
facet normal 0.4999999999999996 0.0 0.8660254037844389
  outer loop
    vertex 149.25 1.9999999999999998 21.700961894323342
    vertex 149.61177143234622 -1.9999999999999998 21.551111260566397
    vertex 149.61177143234622 1.9999999999999998 21.551111260566397
  endloop
endfacet
facet normal 0.4999999999999996 0.0 0.8660254037844389
  outer loop
    vertex 149.25 -1.9999999999999998 21.700961894323342
    vertex 148.93933982822017 1.9999999999999998 21.93933982822018
    vertex 148.93933982822017 -1.9999999999999998 21.93933982822018
  endloop
endfacet
facet normal 0.7071067811865603 0.0 0.7071067811865348
  outer loop
    vertex 148.93933982822017 1.9999999999999998 21.93933982822018
    vertex 149.25 -1.9999999999999998 21.700961894323342
    vertex 149.25 1.9999999999999998 21.700961894323342
  endloop
endfacet
facet normal 0.7071067811865603 0.0 0.7071067811865348
  outer loop
    vertex 148.93933982822017 1.9999999999999998 21.93933982822018
    vertex 148.70096189432334 -1.9999999999999998 22.25
    vertex 148.93933982822017 -1.9999999999999998 21.93933982822018
  endloop
endfacet
facet normal 0.8660254037844394 0.0 0.4999999999999986
  outer loop
    vertex 148.70096189432334 -1.9999999999999998 22.25
    vertex 148.93933982822017 1.9999999999999998 21.93933982822018
    vertex 148.70096189432334 1.9999999999999998 22.25
  endloop
endfacet
facet normal 0.8660254037844394 0.0 0.4999999999999986
  outer loop
    vertex 148.70096189432334 1.9999999999999998 22.25
    vertex 148.5511112605664 -1.9999999999999998 22.61177143234622
    vertex 148.70096189432334 -1.9999999999999998 22.25
  endloop
endfacet
facet normal 0.9659258262890665 0.0 0.2588190451025268
  outer loop
    vertex 148.5511112605664 -1.9999999999999998 22.61177143234622
    vertex 148.70096189432334 1.9999999999999998 22.25
    vertex 148.5511112605664 1.9999999999999998 22.61177143234622
  endloop
endfacet
facet normal 0.9659258262890665 0.0 0.2588190451025268
  outer loop
    vertex 148.5511112605664 1.9999999999999998 22.61177143234622
    vertex 148.5 -1.9999999999999998 23.0
    vertex 148.5511112605664 -1.9999999999999998 22.61177143234622
  endloop
endfacet
facet normal 0.9914448613738114 -0.0 0.1305261922200446
  outer loop
    vertex 148.5 -1.9999999999999998 23.0
    vertex 148.5511112605664 1.9999999999999998 22.61177143234622
    vertex 148.5 1.9999999999999998 23.0
  endloop
endfacet
facet normal 0.9914448613738105 -0.0 -0.13052619222005168
  outer loop
    vertex 18.5 1.9999999999999998 23.0
    vertex 18.551111260566397 -1.9999999999999998 23.38822856765378
    vertex 18.5 -1.9999999999999998 23.0
  endloop
endfacet
facet normal 0.9659258262890688 0.0 -0.25881904510251935
  outer loop
    vertex 18.551111260566397 -1.9999999999999998 23.38822856765378
    vertex 18.5 1.9999999999999998 23.0
    vertex 18.551111260566397 1.9999999999999998 23.38822856765378
  endloop
endfacet
facet normal 0.9659258262890688 0.0 -0.25881904510251935
  outer loop
    vertex 18.551111260566397 1.9999999999999998 23.38822856765378
    vertex 18.700961894323342 -1.9999999999999998 23.75
    vertex 18.551111260566397 -1.9999999999999998 23.38822856765378
  endloop
endfacet
facet normal 0.8660254037844384 0.0 -0.5000000000000007
  outer loop
    vertex 18.700961894323342 -1.9999999999999998 23.75
    vertex 18.551111260566397 1.9999999999999998 23.38822856765378
    vertex 18.700961894323342 1.9999999999999998 23.75
  endloop
endfacet
facet normal 0.8660254037844384 0.0 -0.5000000000000007
  outer loop
    vertex 18.700961894323342 1.9999999999999998 23.75
    vertex 18.939339828220177 -1.9999999999999998 24.060660171779823
    vertex 18.700961894323342 -1.9999999999999998 23.75
  endloop
endfacet
facet normal 0.7071067811865459 0.0 -0.7071067811865491
  outer loop
    vertex 18.939339828220177 -1.9999999999999998 24.060660171779823
    vertex 18.700961894323342 1.9999999999999998 23.75
    vertex 18.939339828220177 1.9999999999999998 24.060660171779823
  endloop
endfacet
facet normal 0.5 0.0 -0.8660254037844387
  outer loop
    vertex 19.25 1.9999999999999998 24.299038105676658
    vertex 18.939339828220177 -1.9999999999999998 24.060660171779823
    vertex 18.939339828220177 1.9999999999999998 24.060660171779823
  endloop
endfacet
facet normal 0.7071067811865459 0.0 -0.7071067811865491
  outer loop
    vertex 18.939339828220177 -1.9999999999999998 24.060660171779823
    vertex 19.25 1.9999999999999998 24.299038105676658
    vertex 19.25 -1.9999999999999998 24.299038105676658
  endloop
endfacet
facet normal 0.25881904510252063 0.0 -0.9659258262890682
  outer loop
    vertex 19.61177143234622 1.9999999999999998 24.448888739433603
    vertex 19.25 -1.9999999999999998 24.299038105676658
    vertex 19.25 1.9999999999999998 24.299038105676658
  endloop
endfacet
facet normal 0.5 0.0 -0.8660254037844387
  outer loop
    vertex 19.25 -1.9999999999999998 24.299038105676658
    vertex 19.61177143234622 1.9999999999999998 24.448888739433603
    vertex 19.61177143234622 -1.9999999999999998 24.448888739433603
  endloop
endfacet
facet normal 0.0 0.0 -1.0
  outer loop
    vertex 20.0 1.9999999999999998 24.5
    vertex 19.61177143234622 -1.9999999999999998 24.448888739433603
    vertex 19.61177143234622 1.9999999999999998 24.448888739433603
  endloop
endfacet
facet normal 0.25881904510252063 0.0 -0.9659258262890682
  outer loop
    vertex 19.61177143234622 -1.9999999999999998 24.448888739433603
    vertex 20.0 1.9999999999999998 24.5
    vertex 20.0 -1.9999999999999998 24.5
  endloop
endfacet
facet normal -0.25881904510251935 0.0 -0.9659258262890688
  outer loop
    vertex 20.38822856765378 1.9999999999999998 24.448888739433603
    vertex 20.0 -1.9999999999999998 24.5
    vertex 20.0 1.9999999999999998 24.5
  endloop
endfacet
facet normal 0.0 0.0 -1.0
  outer loop
    vertex 20.0 -1.9999999999999998 24.5
    vertex 20.38822856765378 1.9999999999999998 24.448888739433603
    vertex 20.38822856765378 -1.9999999999999998 24.448888739433603
  endloop
endfacet
facet normal -0.5000000000000007 0.0 -0.8660254037844384
  outer loop
    vertex 20.75 1.9999999999999998 24.299038105676658
    vertex 20.38822856765378 -1.9999999999999998 24.448888739433603
    vertex 20.38822856765378 1.9999999999999998 24.448888739433603
  endloop
endfacet
facet normal -0.25881904510251935 0.0 -0.9659258262890688
  outer loop
    vertex 20.38822856765378 -1.9999999999999998 24.448888739433603
    vertex 20.75 1.9999999999999998 24.299038105676658
    vertex 20.75 -1.9999999999999998 24.299038105676658
  endloop
endfacet
facet normal -0.7071067811865491 0.0 -0.7071067811865459
  outer loop
    vertex 21.060660171779823 1.9999999999999998 24.060660171779823
    vertex 20.75 -1.9999999999999998 24.299038105676658
    vertex 20.75 1.9999999999999998 24.299038105676658
  endloop
endfacet
facet normal -0.5000000000000007 0.0 -0.8660254037844384
  outer loop
    vertex 20.75 -1.9999999999999998 24.299038105676658
    vertex 21.060660171779823 1.9999999999999998 24.060660171779823
    vertex 21.060660171779823 -1.9999999999999998 24.060660171779823
  endloop
endfacet
facet normal -0.7071067811865491 0.0 -0.7071067811865459
  outer loop
    vertex 21.060660171779823 1.9999999999999998 24.060660171779823
    vertex 21.299038105676658 -1.9999999999999998 23.75
    vertex 21.060660171779823 -1.9999999999999998 24.060660171779823
  endloop
endfacet
facet normal -0.8660254037844387 0.0 -0.5
  outer loop
    vertex 21.299038105676658 -1.9999999999999998 23.75
    vertex 21.060660171779823 1.9999999999999998 24.060660171779823
    vertex 21.299038105676658 1.9999999999999998 23.75
  endloop
endfacet
facet normal -0.8660254037844387 0.0 -0.5
  outer loop
    vertex 21.299038105676658 1.9999999999999998 23.75
    vertex 21.448888739433603 -1.9999999999999998 23.38822856765378
    vertex 21.299038105676658 -1.9999999999999998 23.75
  endloop
endfacet
facet normal -0.9659258262890682 0.0 -0.25881904510252063
  outer loop
    vertex 21.448888739433603 -1.9999999999999998 23.38822856765378
    vertex 21.299038105676658 1.9999999999999998 23.75
    vertex 21.448888739433603 1.9999999999999998 23.38822856765378
  endloop
endfacet
facet normal -0.9659258262890682 0.0 -0.25881904510252063
  outer loop
    vertex 21.448888739433603 1.9999999999999998 23.38822856765378
    vertex 21.5 -1.9999999999999998 23.0
    vertex 21.448888739433603 -1.9999999999999998 23.38822856765378
  endloop
endfacet
facet normal -0.9914448613738105 0.0 -0.13052619222005168
  outer loop
    vertex 21.5 -1.9999999999999998 23.0
    vertex 21.448888739433603 1.9999999999999998 23.38822856765378
    vertex 21.5 1.9999999999999998 23.0
  endloop
endfacet
facet normal -0.0 -0.0 1.0
  outer loop
    vertex 18.5 -1.9999999999999998 23.0
    vertex 12.0 1.9999999999999998 23.0
    vertex 12.0 -1.9999999999999998 23.0
  endloop
endfacet
facet normal -0.0 -0.0 1.0
  outer loop
    vertex 12.0 1.9999999999999998 23.0
    vertex 18.5 -1.9999999999999998 23.0
    vertex 18.5 1.9999999999999998 23.0
  endloop
endfacet
facet normal -0.9914448613738105 0.0 0.13052619222005168
  outer loop
    vertex 21.5 1.9999999999999998 23.0
    vertex 21.448888739433603 -1.9999999999999998 22.61177143234622
    vertex 21.5 -1.9999999999999998 23.0
  endloop
endfacet
facet normal -0.9659258262890688 0.0 0.25881904510251935
  outer loop
    vertex 21.448888739433603 -1.9999999999999998 22.61177143234622
    vertex 21.5 1.9999999999999998 23.0
    vertex 21.448888739433603 1.9999999999999998 22.61177143234622
  endloop
endfacet
facet normal -0.9659258262890688 0.0 0.25881904510251935
  outer loop
    vertex 21.448888739433603 1.9999999999999998 22.61177143234622
    vertex 21.299038105676658 -1.9999999999999998 22.25
    vertex 21.448888739433603 -1.9999999999999998 22.61177143234622
  endloop
endfacet
facet normal -0.8660254037844384 0.0 0.5000000000000007
  outer loop
    vertex 21.299038105676658 -1.9999999999999998 22.25
    vertex 21.448888739433603 1.9999999999999998 22.61177143234622
    vertex 21.299038105676658 1.9999999999999998 22.25
  endloop
endfacet
facet normal -0.8660254037844384 0.0 0.5000000000000007
  outer loop
    vertex 21.299038105676658 1.9999999999999998 22.25
    vertex 21.060660171779823 -1.9999999999999998 21.93933982822018
    vertex 21.299038105676658 -1.9999999999999998 22.25
  endloop
endfacet
facet normal -0.7071067811865459 0.0 0.7071067811865491
  outer loop
    vertex 21.060660171779823 -1.9999999999999998 21.93933982822018
    vertex 21.299038105676658 1.9999999999999998 22.25
    vertex 21.060660171779823 1.9999999999999998 21.93933982822018
  endloop
endfacet
facet normal -0.7071067811865459 0.0 0.7071067811865491
  outer loop
    vertex 21.060660171779823 -1.9999999999999998 21.93933982822018
    vertex 20.75 1.9999999999999998 21.700961894323342
    vertex 20.75 -1.9999999999999998 21.700961894323342
  endloop
endfacet
facet normal -0.5 0.0 0.8660254037844387
  outer loop
    vertex 20.75 1.9999999999999998 21.700961894323342
    vertex 21.060660171779823 -1.9999999999999998 21.93933982822018
    vertex 21.060660171779823 1.9999999999999998 21.93933982822018
  endloop
endfacet
facet normal -0.5 0.0 0.8660254037844387
  outer loop
    vertex 20.75 -1.9999999999999998 21.700961894323342
    vertex 20.38822856765378 1.9999999999999998 21.551111260566397
    vertex 20.38822856765378 -1.9999999999999998 21.551111260566397
  endloop
endfacet
facet normal -0.25881904510252063 0.0 0.9659258262890682
  outer loop
    vertex 20.38822856765378 1.9999999999999998 21.551111260566397
    vertex 20.75 -1.9999999999999998 21.700961894323342
    vertex 20.75 1.9999999999999998 21.700961894323342
  endloop
endfacet
facet normal -0.25881904510252063 0.0 0.9659258262890682
  outer loop
    vertex 20.38822856765378 -1.9999999999999998 21.551111260566397
    vertex 20.0 1.9999999999999998 21.5
    vertex 20.0 -1.9999999999999998 21.5
  endloop
endfacet
facet normal 0.0 0.0 1.0
  outer loop
    vertex 20.0 1.9999999999999998 21.5
    vertex 20.38822856765378 -1.9999999999999998 21.551111260566397
    vertex 20.38822856765378 1.9999999999999998 21.551111260566397
  endloop
endfacet
facet normal 0.0 0.0 1.0
  outer loop
    vertex 20.0 -1.9999999999999998 21.5
    vertex 19.61177143234622 1.9999999999999998 21.551111260566397
    vertex 19.61177143234622 -1.9999999999999998 21.551111260566397
  endloop
endfacet
facet normal 0.25881904510251935 0.0 0.9659258262890688
  outer loop
    vertex 19.61177143234622 1.9999999999999998 21.551111260566397
    vertex 20.0 -1.9999999999999998 21.5
    vertex 20.0 1.9999999999999998 21.5
  endloop
endfacet
facet normal 0.25881904510251935 0.0 0.9659258262890688
  outer loop
    vertex 19.61177143234622 -1.9999999999999998 21.551111260566397
    vertex 19.25 1.9999999999999998 21.700961894323342
    vertex 19.25 -1.9999999999999998 21.700961894323342
  endloop
endfacet
facet normal 0.5000000000000007 0.0 0.8660254037844384
  outer loop
    vertex 19.25 1.9999999999999998 21.700961894323342
    vertex 19.61177143234622 -1.9999999999999998 21.551111260566397
    vertex 19.61177143234622 1.9999999999999998 21.551111260566397
  endloop
endfacet
facet normal 0.5000000000000007 0.0 0.8660254037844384
  outer loop
    vertex 19.25 -1.9999999999999998 21.700961894323342
    vertex 18.939339828220177 1.9999999999999998 21.93933982822018
    vertex 18.939339828220177 -1.9999999999999998 21.93933982822018
  endloop
endfacet
facet normal 0.7071067811865491 0.0 0.7071067811865459
  outer loop
    vertex 18.939339828220177 1.9999999999999998 21.93933982822018
    vertex 19.25 -1.9999999999999998 21.700961894323342
    vertex 19.25 1.9999999999999998 21.700961894323342
  endloop
endfacet
facet normal 0.7071067811865491 0.0 0.7071067811865459
  outer loop
    vertex 18.939339828220177 1.9999999999999998 21.93933982822018
    vertex 18.700961894323342 -1.9999999999999998 22.25
    vertex 18.939339828220177 -1.9999999999999998 21.93933982822018
  endloop
endfacet
facet normal 0.8660254037844387 0.0 0.5
  outer loop
    vertex 18.700961894323342 -1.9999999999999998 22.25
    vertex 18.939339828220177 1.9999999999999998 21.93933982822018
    vertex 18.700961894323342 1.9999999999999998 22.25
  endloop
endfacet
facet normal 0.8660254037844387 0.0 0.5
  outer loop
    vertex 18.700961894323342 1.9999999999999998 22.25
    vertex 18.551111260566397 -1.9999999999999998 22.61177143234622
    vertex 18.700961894323342 -1.9999999999999998 22.25
  endloop
endfacet
facet normal 0.9659258262890682 0.0 0.25881904510252063
  outer loop
    vertex 18.551111260566397 -1.9999999999999998 22.61177143234622
    vertex 18.700961894323342 1.9999999999999998 22.25
    vertex 18.551111260566397 1.9999999999999998 22.61177143234622
  endloop
endfacet
facet normal 0.9659258262890682 0.0 0.25881904510252063
  outer loop
    vertex 18.551111260566397 1.9999999999999998 22.61177143234622
    vertex 18.5 -1.9999999999999998 23.0
    vertex 18.551111260566397 -1.9999999999999998 22.61177143234622
  endloop
endfacet
facet normal 0.9914448613738105 -0.0 0.13052619222005168
  outer loop
    vertex 18.5 -1.9999999999999998 23.0
    vertex 18.551111260566397 1.9999999999999998 22.61177143234622
    vertex 18.5 1.9999999999999998 23.0
  endloop
endfacet
endsolid Untitled-5397fc04
